<svg width="20" height="20" viewBox="0 0 20 20" fill="none" xmlns="http://www.w3.org/2000/svg">
<path fill-rule="evenodd" clip-rule="evenodd" d="M11.6603 10.9674C11.3694 11.0857 11.1835 11.5391 10.995 11.7706C10.8983 11.8893 10.783 11.9078 10.6344 11.8483C9.54246 11.4153 8.70541 10.6901 8.10284 9.68997C8.00076 9.53489 8.01908 9.41237 8.14217 9.26834C8.32411 9.05499 8.55289 8.81265 8.60213 8.52519C8.71141 7.8893 7.87617 5.91681 6.77312 6.81058C3.59907 9.38488 12.068 16.2125 13.5965 12.5198C14.0288 11.473 12.1425 10.7708 11.6603 10.9674Z" fill="white"/>
<path d="M10 2.75C14.0081 2.75 17.2499 5.97906 17.25 9.95312C17.25 13.9273 14.0082 17.1562 10 17.1562C9.24901 17.1562 8.7743 17.1329 8.35254 17.04C7.9467 16.9506 7.55202 16.7878 6.99512 16.4541C6.7122 16.2848 6.39642 16.2895 6.21973 16.3018C6.00978 16.3163 5.78361 16.361 5.56836 16.4141C5.13779 16.5201 4.62674 16.6905 4.16504 16.8408C3.73179 16.9819 3.33918 17.1035 3.02051 17.1787C3.09529 16.8927 3.21018 16.5465 3.34082 16.1641C3.487 15.7361 3.65273 15.2593 3.75781 14.8564C3.81034 14.6551 3.85658 14.4415 3.87305 14.2412C3.88684 14.0734 3.89606 13.7653 3.7334 13.4854C3.11241 12.4164 2.75 11.2516 2.75 9.95312C2.75011 5.97906 5.99186 2.75 10 2.75Z" stroke="white" stroke-width="1.5"/>
</svg>
