<svg width="261" height="20" viewBox="0 0 261 20" fill="none" xmlns="http://www.w3.org/2000/svg">
<path d="M61.3553 16V4.98488H65.572C66.368 4.98488 67.0296 5.11037 67.5567 5.36137C68.0874 5.60878 68.4836 5.94762 68.7453 6.3779C69.0107 6.80818 69.1433 7.29583 69.1433 7.84085C69.1433 8.28905 69.0573 8.67272 68.8852 8.99184C68.7131 9.30738 68.4818 9.56375 68.1913 9.76096C67.9009 9.95818 67.5764 10.0998 67.2178 10.1859V10.2934C67.6087 10.3149 67.9834 10.4351 68.3419 10.6538C68.7041 10.8689 68.9999 11.1737 69.2294 11.5681C69.4589 11.9626 69.5736 12.4394 69.5736 12.9988C69.5736 13.5689 69.4356 14.0817 69.1595 14.5371C68.8834 14.9888 68.4674 15.3456 67.9117 15.6074C67.3559 15.8691 66.6567 16 65.8141 16H61.3553ZM63.3507 14.3327H65.4967C66.221 14.3327 66.7427 14.1946 67.0619 13.9185C67.3846 13.6388 67.5459 13.2803 67.5459 12.8428C67.5459 12.5165 67.4652 12.2225 67.3039 11.9608C67.1425 11.6954 66.9131 11.4875 66.6154 11.3369C66.3178 11.1827 65.9629 11.1056 65.5505 11.1056H63.3507V14.3327ZM63.3507 9.66953H65.3246C65.6688 9.66953 65.979 9.60678 66.2551 9.48128C66.5312 9.3522 66.7481 9.17113 66.9059 8.93806C67.0672 8.7014 67.1479 8.42172 67.1479 8.09902C67.1479 7.67232 66.9973 7.32093 66.6961 7.04483C66.3985 6.76874 65.9557 6.63069 65.3676 6.63069H63.3507V9.66953ZM76.489 12.5255V7.73866H78.436V16H76.5482V14.5317H76.4621C76.2756 14.9942 75.9691 15.3725 75.5424 15.6665C75.1193 15.9606 74.5976 16.1076 73.9772 16.1076C73.4358 16.1076 72.9571 15.9875 72.5412 15.7472C72.1288 15.5034 71.8061 15.1502 71.5731 14.6877C71.34 14.2215 71.2235 13.6586 71.2235 12.9988V7.73866H73.1705V12.6976C73.1705 13.2211 73.3139 13.6371 73.6007 13.9454C73.8876 14.2538 74.2641 14.408 74.7302 14.408C75.0171 14.408 75.295 14.3381 75.5639 14.1982C75.8328 14.0584 76.0533 13.8504 76.2254 13.5743C76.4011 13.2946 76.489 12.945 76.489 12.5255ZM86.9676 9.92232L85.1927 10.1159C85.1425 9.93666 85.0547 9.76814 84.9292 9.61037C84.8073 9.4526 84.6423 9.32531 84.4344 9.2285C84.2264 9.13168 83.9718 9.08328 83.6706 9.08328C83.2654 9.08328 82.9248 9.17113 82.6487 9.34682C82.3762 9.52252 82.2417 9.75021 82.2453 10.0299C82.2417 10.2701 82.3296 10.4655 82.5089 10.6161C82.6917 10.7667 82.9929 10.8904 83.4124 10.9873L84.8216 11.2885C85.6033 11.457 86.1841 11.7241 86.5642 12.0898C86.9479 12.4556 87.1415 12.9343 87.1451 13.5259C87.1415 14.0458 86.9891 14.5048 86.6879 14.9028C86.3903 15.2972 85.9762 15.6056 85.4455 15.8279C84.9148 16.0502 84.3053 16.1614 83.6168 16.1614C82.6057 16.1614 81.7917 15.9498 81.175 15.5267C80.5583 15.1 80.1907 14.5066 80.0724 13.7464L81.971 13.5635C82.0571 13.9365 82.2399 14.2179 82.5196 14.408C82.7993 14.598 83.1632 14.693 83.6114 14.693C84.074 14.693 84.4451 14.598 84.7248 14.408C85.0081 14.2179 85.1497 13.9831 85.1497 13.7034C85.1497 13.4667 85.0583 13.2713 84.8754 13.1171C84.6961 12.963 84.4164 12.8446 84.0363 12.7622L82.6272 12.4663C81.8348 12.3014 81.2485 12.0235 80.8684 11.6327C80.4883 11.2383 80.3001 10.7398 80.3037 10.1375C80.3001 9.6283 80.4381 9.18726 80.7178 8.81435C81.0011 8.43786 81.3937 8.14742 81.8957 7.94304C82.4013 7.73507 82.984 7.63109 83.6437 7.63109C84.6118 7.63109 85.3738 7.83726 85.9296 8.24961C86.4889 8.66196 86.8349 9.21953 86.9676 9.92232ZM88.7506 16V7.73866H90.6976V16H88.7506ZM89.7295 6.56615C89.4211 6.56615 89.1558 6.46396 88.9334 6.25958C88.7111 6.05161 88.6 5.8024 88.6 5.51197C88.6 5.21794 88.7111 4.96874 88.9334 4.76436C89.1558 4.55639 89.4211 4.45241 89.7295 4.45241C90.0414 4.45241 90.3068 4.55639 90.5255 4.76436C90.7478 4.96874 90.8589 5.21794 90.8589 5.51197C90.8589 5.8024 90.7478 6.05161 90.5255 6.25958C90.3068 6.46396 90.0414 6.56615 89.7295 6.56615ZM94.6467 11.1594V16H92.6997V7.73866H94.5607V9.14244H94.6575C94.8475 8.67989 95.1505 8.31236 95.5665 8.03985C95.986 7.76734 96.5041 7.63109 97.1208 7.63109C97.691 7.63109 98.1876 7.753 98.6107 7.99682C99.0374 8.24065 99.3672 8.59384 99.6003 9.05638C99.837 9.51893 99.9535 10.0801 99.9499 10.7398V16H98.0029V11.041C98.0029 10.4889 97.8595 10.0568 97.5726 9.74483C97.2894 9.43288 96.8967 9.2769 96.3947 9.2769C96.0541 9.2769 95.7511 9.3522 95.4858 9.5028C95.224 9.64981 95.0178 9.86316 94.8672 10.1428C94.7202 10.4225 94.6467 10.7614 94.6467 11.1594ZM105.587 16.1614C104.758 16.1614 104.043 15.9892 103.441 15.645C102.842 15.2972 102.381 14.806 102.058 14.1713C101.736 13.5331 101.574 12.7819 101.574 11.9177C101.574 11.0679 101.736 10.3221 102.058 9.68029C102.385 9.03487 102.84 8.53288 103.424 8.17431C104.009 7.81216 104.696 7.63109 105.484 7.63109C105.994 7.63109 106.474 7.71356 106.926 7.8785C107.381 8.03985 107.783 8.29085 108.131 8.63148C108.482 8.97212 108.758 9.40599 108.959 9.93308C109.16 10.4566 109.26 11.0805 109.26 11.8048V12.4018H102.489V11.0894H107.394C107.39 10.7165 107.309 10.3849 107.152 10.0944C106.994 9.80041 106.773 9.56913 106.49 9.40061C106.21 9.23208 105.884 9.14782 105.511 9.14782C105.113 9.14782 104.764 9.24463 104.462 9.43826C104.161 9.6283 103.926 9.87929 103.758 10.1912C103.593 10.4996 103.509 10.8385 103.505 11.2078V12.3534C103.505 12.8339 103.593 13.2462 103.769 13.5904C103.944 13.9311 104.19 14.1928 104.505 14.3757C104.821 14.555 105.19 14.6446 105.613 14.6446C105.897 14.6446 106.153 14.6052 106.383 14.5263C106.612 14.4438 106.811 14.3237 106.98 14.1659C107.148 14.0082 107.275 13.8128 107.361 13.5797L109.179 13.7841C109.065 14.2645 108.846 14.6841 108.523 15.0426C108.204 15.3976 107.795 15.6737 107.297 15.8709C106.799 16.0645 106.228 16.1614 105.587 16.1614ZM117.437 9.92232L115.662 10.1159C115.612 9.93666 115.524 9.76814 115.398 9.61037C115.276 9.4526 115.111 9.32531 114.903 9.2285C114.695 9.13168 114.441 9.08328 114.14 9.08328C113.735 9.08328 113.394 9.17113 113.118 9.34682C112.845 9.52252 112.711 9.75021 112.714 10.0299C112.711 10.2701 112.799 10.4655 112.978 10.6161C113.161 10.7667 113.462 10.8904 113.882 10.9873L115.291 11.2885C116.072 11.457 116.653 11.7241 117.033 12.0898C117.417 12.4556 117.611 12.9343 117.614 13.5259C117.611 14.0458 117.458 14.5048 117.157 14.9028C116.859 15.2972 116.445 15.6056 115.915 15.8279C115.384 16.0502 114.774 16.1614 114.086 16.1614C113.075 16.1614 112.261 15.9498 111.644 15.5267C111.027 15.1 110.66 14.5066 110.541 13.7464L112.44 13.5635C112.526 13.9365 112.709 14.2179 112.989 14.408C113.268 14.598 113.632 14.693 114.081 14.693C114.543 14.693 114.914 14.598 115.194 14.408C115.477 14.2179 115.619 13.9831 115.619 13.7034C115.619 13.4667 115.527 13.2713 115.344 13.1171C115.165 12.963 114.886 12.8446 114.505 12.7622L113.096 12.4663C112.304 12.3014 111.718 12.0235 111.337 11.6327C110.957 11.2383 110.769 10.7398 110.773 10.1375C110.769 9.6283 110.907 9.18726 111.187 8.81435C111.47 8.43786 111.863 8.14742 112.365 7.94304C112.87 7.73507 113.453 7.63109 114.113 7.63109C115.081 7.63109 115.843 7.83726 116.399 8.24961C116.958 8.66196 117.304 9.21953 117.437 9.92232ZM125.749 9.92232L123.974 10.1159C123.924 9.93666 123.836 9.76814 123.711 9.61037C123.589 9.4526 123.424 9.32531 123.216 9.2285C123.008 9.13168 122.753 9.08328 122.452 9.08328C122.047 9.08328 121.706 9.17113 121.43 9.34682C121.158 9.52252 121.023 9.75021 121.027 10.0299C121.023 10.2701 121.111 10.4655 121.29 10.6161C121.473 10.7667 121.774 10.8904 122.194 10.9873L123.603 11.2885C124.385 11.457 124.966 11.7241 125.346 12.0898C125.729 12.4556 125.923 12.9343 125.927 13.5259C125.923 14.0458 125.771 14.5048 125.469 14.9028C125.172 15.2972 124.758 15.6056 124.227 15.8279C123.696 16.0502 123.087 16.1614 122.398 16.1614C121.387 16.1614 120.573 15.9498 119.957 15.5267C119.34 15.1 118.972 14.5066 118.854 13.7464L120.753 13.5635C120.839 13.9365 121.021 14.2179 121.301 14.408C121.581 14.598 121.945 14.693 122.393 14.693C122.856 14.693 123.227 14.598 123.506 14.408C123.79 14.2179 123.931 13.9831 123.931 13.7034C123.931 13.4667 123.84 13.2713 123.657 13.1171C123.478 12.963 123.198 12.8446 122.818 12.7622L121.409 12.4663C120.616 12.3014 120.03 12.0235 119.65 11.6327C119.27 11.2383 119.082 10.7398 119.085 10.1375C119.082 9.6283 119.22 9.18726 119.499 8.81435C119.783 8.43786 120.175 8.14742 120.677 7.94304C121.183 7.73507 121.765 7.63109 122.425 7.63109C123.393 7.63109 124.155 7.83726 124.711 8.24961C125.27 8.66196 125.616 9.21953 125.749 9.92232ZM131.375 16V4.98488H135.506C136.352 4.98488 137.062 5.14264 137.636 5.45818C138.213 5.77372 138.649 6.20758 138.943 6.75977C139.24 7.30838 139.389 7.93228 139.389 8.63148C139.389 9.33786 139.24 9.96535 138.943 10.514C138.645 11.0626 138.206 11.4946 137.625 11.8102C137.044 12.1221 136.329 12.2781 135.479 12.2781H132.741V10.6377H135.21C135.705 10.6377 136.11 10.5516 136.425 10.3795C136.741 10.2074 136.974 9.97073 137.125 9.66953C137.279 9.36834 137.356 9.02232 137.356 8.63148C137.356 8.24065 137.279 7.89643 137.125 7.59882C136.974 7.30121 136.739 7.06993 136.42 6.90499C136.104 6.73647 135.698 6.6522 135.199 6.6522H133.37V16H131.375ZM141.036 16V7.73866H142.924V9.11555H143.01C143.161 8.63866 143.419 8.27113 143.785 8.01296C144.154 7.75121 144.575 7.62033 145.048 7.62033C145.156 7.62033 145.276 7.62571 145.409 7.63647C145.545 7.64364 145.658 7.65619 145.748 7.67412V9.46515C145.665 9.43646 145.534 9.41136 145.355 9.38985C145.179 9.36475 145.009 9.3522 144.844 9.3522C144.489 9.3522 144.17 9.42929 143.887 9.58348C143.607 9.73407 143.386 9.94383 143.225 10.2128C143.064 10.4817 142.983 10.7918 142.983 11.1432V16H141.036ZM150.305 16.1614C149.498 16.1614 148.799 15.9839 148.207 15.6289C147.615 15.2739 147.156 14.7773 146.83 14.139C146.507 13.5008 146.346 12.755 146.346 11.9016C146.346 11.0482 146.507 10.3006 146.83 9.65877C147.156 9.01694 147.615 8.51854 148.207 8.16356C148.799 7.80858 149.498 7.63109 150.305 7.63109C151.111 7.63109 151.811 7.80858 152.402 8.16356C152.994 8.51854 153.451 9.01694 153.774 9.65877C154.1 10.3006 154.263 11.0482 154.263 11.9016C154.263 12.755 154.1 13.5008 153.774 14.139C153.451 14.7773 152.994 15.2739 152.402 15.6289C151.811 15.9839 151.111 16.1614 150.305 16.1614ZM150.315 14.6016C150.753 14.6016 151.119 14.4815 151.413 14.2412C151.707 13.9974 151.925 13.6711 152.069 13.2624C152.216 12.8536 152.289 12.3982 152.289 11.8962C152.289 11.3906 152.216 10.9335 152.069 10.5247C151.925 10.1124 151.707 9.78427 151.413 9.54045C151.119 9.29662 150.753 9.17471 150.315 9.17471C149.867 9.17471 149.494 9.29662 149.197 9.54045C148.903 9.78427 148.682 10.1124 148.535 10.5247C148.392 10.9335 148.32 11.3906 148.32 11.8962C148.32 12.3982 148.392 12.8536 148.535 13.2624C148.682 13.6711 148.903 13.9974 149.197 14.2412C149.494 14.4815 149.867 14.6016 150.315 14.6016ZM160.1 7.73866V9.24463H155.216V7.73866H160.1ZM156.437 16V6.95878C156.437 6.403 156.552 5.94045 156.782 5.57113C157.015 5.20181 157.327 4.92571 157.717 4.74284C158.108 4.55998 158.542 4.46854 159.019 4.46854C159.356 4.46854 159.656 4.49543 159.917 4.54922C160.179 4.603 160.373 4.65141 160.498 4.69444L160.111 6.20041C160.028 6.17531 159.924 6.15021 159.799 6.12511C159.673 6.09643 159.534 6.08209 159.379 6.08209C159.017 6.08209 158.761 6.16993 158.61 6.34563C158.463 6.51774 158.39 6.76515 158.39 7.08786V16H156.437ZM161.625 16V7.73866H163.572V16H161.625ZM162.604 6.56615C162.295 6.56615 162.03 6.46396 161.808 6.25958C161.585 6.05161 161.474 5.8024 161.474 5.51197C161.474 5.21794 161.585 4.96874 161.808 4.76436C162.03 4.55639 162.295 4.45241 162.604 4.45241C162.916 4.45241 163.181 4.55639 163.4 4.76436C163.622 4.96874 163.733 5.21794 163.733 5.51197C163.733 5.8024 163.622 6.05161 163.4 6.25958C163.181 6.46396 162.916 6.56615 162.604 6.56615ZM167.521 4.98488V16H165.574V4.98488H167.521ZM173.181 16.1614C172.352 16.1614 171.637 15.9892 171.035 15.645C170.436 15.2972 169.975 14.806 169.652 14.1713C169.33 13.5331 169.168 12.7819 169.168 11.9177C169.168 11.0679 169.33 10.3221 169.652 9.68029C169.979 9.03487 170.434 8.53288 171.018 8.17431C171.603 7.81216 172.29 7.63109 173.078 7.63109C173.588 7.63109 174.068 7.71356 174.52 7.8785C174.975 8.03985 175.377 8.29085 175.725 8.63148C176.076 8.97212 176.352 9.40599 176.553 9.93308C176.754 10.4566 176.854 11.0805 176.854 11.8048V12.4018H170.083V11.0894H174.988C174.984 10.7165 174.903 10.3849 174.746 10.0944C174.588 9.80041 174.367 9.56913 174.084 9.40061C173.804 9.23208 173.478 9.14782 173.105 9.14782C172.707 9.14782 172.358 9.24463 172.056 9.43826C171.755 9.6283 171.52 9.87929 171.352 10.1912C171.187 10.4996 171.103 10.8385 171.099 11.2078V12.3534C171.099 12.8339 171.187 13.2462 171.363 13.5904C171.538 13.9311 171.784 14.1928 172.1 14.3757C172.415 14.555 172.784 14.6446 173.207 14.6446C173.491 14.6446 173.747 14.6052 173.977 14.5263C174.206 14.4438 174.405 14.3237 174.574 14.1659C174.742 14.0082 174.869 13.8128 174.955 13.5797L176.773 13.7841C176.659 14.2645 176.44 14.6841 176.117 15.0426C175.798 15.3976 175.389 15.6737 174.891 15.8709C174.393 16.0645 173.822 16.1614 173.181 16.1614Z" fill="#4867FA"/>
<g clip-path="url(#clip0_5050_1417)">
<path d="M23.8848 10.8879C23.8848 13.5311 21.8171 15.4789 19.2793 15.4789C16.7416 15.4789 14.6738 13.5311 14.6738 10.8879C14.6738 8.226 16.7416 6.29688 19.2793 6.29688C21.8171 6.29688 23.8848 8.226 23.8848 10.8879ZM21.8687 10.8879C21.8687 9.23608 20.6703 8.10599 19.2793 8.10599C17.8884 8.10599 16.6899 9.23619 16.6899 10.8879C16.6899 12.5231 17.8884 13.6698 19.2793 13.6698C20.6703 13.6699 21.8687 12.5211 21.8687 10.8879Z" fill="#FF4131"/>
<path d="M33.8204 10.8879C33.8204 13.5311 31.7526 15.4789 29.2149 15.4789C26.6772 15.4789 24.6094 13.5311 24.6094 10.8879C24.6094 8.22808 26.6772 6.29688 29.2149 6.29688C31.7525 6.29688 33.8204 8.226 33.8204 10.8879ZM31.8043 10.8879C31.8043 9.23608 30.6058 8.10599 29.2149 8.10599C27.8239 8.10599 26.6255 9.23619 26.6255 10.8879C26.6255 12.5231 27.8239 13.6698 29.2149 13.6698C30.6058 13.6699 31.8043 12.5211 31.8043 10.8879Z" fill="#FFBC00"/>
<path d="M43.3422 6.5743V14.8166C43.3422 18.2071 41.3426 19.5918 38.9789 19.5918C36.7538 19.5918 35.4145 18.1035 34.9095 16.8864L36.6647 16.1557C36.9773 16.903 37.7431 17.7848 38.9768 17.7848C40.4898 17.7848 41.4275 16.8512 41.4275 15.0939V14.4336H41.3571C40.9059 14.9904 40.0365 15.4768 38.9395 15.4768C36.644 15.4768 34.541 13.4773 34.541 10.9045C34.541 8.31299 36.644 6.29688 38.9395 6.29688C40.0345 6.29688 40.9039 6.78327 41.3571 7.32352H41.4275V6.57626H43.3422V6.5743ZM41.5703 10.9045C41.5703 9.28786 40.4919 8.10599 39.1196 8.10599C37.7286 8.10599 36.5632 9.28786 36.5632 10.9045C36.5632 12.5045 37.7285 13.6698 39.1196 13.6698C40.4919 13.6699 41.5703 12.5045 41.5703 10.9045Z" fill="#0085F7"/>
<path d="M46.4986 1.74219V15.1965H44.5322V1.74219H46.4986Z" fill="#00A94B"/>
<path d="M54.1608 12.3991L55.7256 13.4423C55.2206 14.1896 54.0035 15.4769 51.9005 15.4769C49.2925 15.4769 47.3447 13.4608 47.3447 10.8859C47.3447 8.1557 49.3091 6.29492 51.6749 6.29492C54.0573 6.29492 55.2227 8.19091 55.6036 9.21548L55.8126 9.73709L49.6754 12.279C50.1453 13.2001 50.876 13.6699 51.9005 13.6699C52.9272 13.67 53.6392 13.1649 54.1608 12.3991ZM49.3443 10.7473L53.4468 9.0438C53.2212 8.47041 52.5423 8.071 51.7433 8.071C50.7187 8.07089 49.2925 8.97545 49.3443 10.7473Z" fill="#FF4131"/>
<path d="M7.23011 9.69483V7.74706H13.7938C13.858 8.08651 13.891 8.4881 13.891 8.92272C13.891 10.3841 13.4915 12.191 12.2041 13.4785C10.9518 14.7826 9.35175 15.4781 7.23219 15.4781C3.30351 15.4781 0 12.278 0 8.34944C0 4.42087 3.30351 1.2207 7.23219 1.2207C9.4056 1.2207 10.9539 2.07348 12.1171 3.18504L10.7427 4.55942C9.90857 3.77696 8.77837 3.16847 7.23011 3.16847C4.36122 3.16847 2.1175 5.48055 2.1175 8.34944C2.1175 11.2183 4.36122 13.5304 7.23011 13.5304C9.09089 13.5304 10.1507 12.7832 10.8297 12.1042C11.3803 11.5536 11.7425 10.7671 11.8853 9.69286L7.23011 9.69483Z" fill="#0085F7"/>
</g>
<line opacity="0.5" x1="184.816" y1="3.18359" x2="184.816" y2="16.8148" stroke="#4867FA" stroke-width="1.51458"/>
<path d="M204.554 10.9762C199.831 11.753 198.991 12.7396 198.361 18.4915C198.34 18.6804 198.067 18.6804 198.046 18.4915C197.417 12.7396 196.577 11.774 191.854 10.9762C191.665 10.9553 191.665 10.6823 191.854 10.6614C196.577 9.88464 197.417 8.91899 198.046 3.16709C198.067 2.97816 198.34 2.97816 198.361 3.16709C198.991 8.91899 199.831 9.86365 204.554 10.6614C204.722 10.6823 204.722 10.9343 204.554 10.9762Z" fill="black"/>
<path d="M204.554 10.9762C199.831 11.753 198.991 12.7396 198.361 18.4915C198.34 18.6804 198.067 18.6804 198.046 18.4915C197.417 12.7396 196.577 11.774 191.854 10.9762C191.665 10.9553 191.665 10.6823 191.854 10.6614C196.577 9.88464 197.417 8.91899 198.046 3.16709C198.067 2.97816 198.34 2.97816 198.361 3.16709C198.991 8.91899 199.831 9.86365 204.554 10.6614C204.722 10.6823 204.722 10.9343 204.554 10.9762Z" fill="url(#paint0_linear_5050_1417)"/>
<path d="M206.569 4.34285C205.1 4.63675 204.68 5.11957 204.428 6.84094C204.407 7.02987 204.134 7.02987 204.113 6.84094C203.861 5.11957 203.441 4.63675 201.972 4.32186C201.804 4.27988 201.804 4.04896 201.972 4.00697C203.42 3.71308 203.861 3.23026 204.113 1.50889C204.134 1.31995 204.407 1.31995 204.428 1.50889C204.68 3.23026 205.1 3.71308 206.569 4.02797C206.737 4.06995 206.737 4.32186 206.569 4.34285Z" fill="black"/>
<path d="M206.569 4.34285C205.1 4.63675 204.68 5.11957 204.428 6.84094C204.407 7.02987 204.134 7.02987 204.113 6.84094C203.861 5.11957 203.441 4.63675 201.972 4.32186C201.804 4.27988 201.804 4.04896 201.972 4.00697C203.42 3.71308 203.861 3.23026 204.113 1.50889C204.134 1.31995 204.407 1.31995 204.428 1.50889C204.68 3.23026 205.1 3.71308 206.569 4.02797C206.737 4.06995 206.737 4.32186 206.569 4.34285Z" fill="url(#paint1_linear_5050_1417)"/>
<path d="M212.749 14.5H211.63L214.866 5.6879H215.967L219.203 14.5H218.084L215.451 7.082H215.382L212.749 14.5ZM213.162 11.0578H217.671V12.0044H213.162V11.0578ZM221.643 5.6879V14.5H220.576V5.6879H221.643ZM227.551 14.5H226.433L229.668 5.6879H230.77L234.006 14.5H232.887L230.254 7.082H230.185L227.551 14.5ZM227.965 11.0578H232.474V12.0044H227.965V11.0578ZM237.908 17.1161C237.418 17.1161 236.996 17.053 236.643 16.9268C236.29 16.8034 235.996 16.6399 235.761 16.4363C235.529 16.2355 235.344 16.0203 235.206 15.7908L236.015 15.2229C236.107 15.3433 236.223 15.481 236.364 15.6359C236.504 15.7937 236.696 15.93 236.94 16.0447C237.187 16.1623 237.51 16.2211 237.908 16.2211C238.442 16.2211 238.882 16.092 239.229 15.8339C239.576 15.5757 239.75 15.1712 239.75 14.6205V13.278H239.664C239.589 13.3985 239.483 13.5477 239.345 13.7255C239.211 13.9005 239.016 14.0568 238.76 14.1945C238.508 14.3293 238.166 14.3967 237.736 14.3967C237.203 14.3967 236.724 14.2705 236.299 14.0181C235.877 13.7657 235.543 13.3985 235.296 12.9166C235.053 12.4347 234.931 11.8495 234.931 11.161C234.931 10.4841 235.05 9.89459 235.288 9.3926C235.526 8.88774 235.857 8.49762 236.282 8.22224C236.706 7.94399 237.197 7.80487 237.753 7.80487C238.184 7.80487 238.525 7.87658 238.777 8.02001C239.033 8.16057 239.228 8.3212 239.363 8.50192C239.5 8.67977 239.606 8.82606 239.681 8.9408H239.784V7.89093H240.765V14.6893C240.765 15.2573 240.636 15.7191 240.378 16.0748C240.123 16.4334 239.779 16.6959 239.345 16.8622C238.915 17.0315 238.436 17.1161 237.908 17.1161ZM237.874 13.4845C238.281 13.4845 238.625 13.3913 238.907 13.2049C239.188 13.0184 239.401 12.7502 239.548 12.4002C239.694 12.0503 239.767 11.6315 239.767 11.1438C239.767 10.6677 239.695 10.2474 239.552 9.88311C239.409 9.51881 239.196 9.23339 238.915 9.02686C238.634 8.82033 238.287 8.71706 237.874 8.71706C237.444 8.71706 237.085 8.82606 236.798 9.04407C236.514 9.26208 236.3 9.55467 236.157 9.92184C236.016 10.289 235.946 10.6963 235.946 11.1438C235.946 11.6028 236.018 12.0087 236.161 12.3615C236.308 12.7115 236.523 12.9869 236.807 13.1877C237.094 13.3856 237.449 13.4845 237.874 13.4845ZM245.395 14.6377C244.758 14.6377 244.209 14.4971 243.747 14.216C243.288 13.932 242.934 13.5362 242.684 13.0284C242.438 12.5179 242.314 11.9241 242.314 11.2471C242.314 10.5701 242.438 9.97347 242.684 9.45714C242.934 8.93794 243.281 8.53347 243.726 8.24375C244.173 7.95117 244.695 7.80487 245.292 7.80487C245.636 7.80487 245.976 7.86224 246.312 7.97698C246.647 8.09172 246.953 8.27818 247.228 8.53634C247.503 8.79164 247.723 9.13013 247.886 9.5518C248.05 9.97347 248.132 10.4927 248.132 11.1094V11.5397H243.037V10.6619H247.099C247.099 10.289 247.024 9.95626 246.875 9.66367C246.729 9.37108 246.52 9.14017 246.247 8.97092C245.977 8.80168 245.659 8.71706 245.292 8.71706C244.887 8.71706 244.537 8.81746 244.242 9.01826C243.949 9.21618 243.724 9.47435 243.566 9.79276C243.409 10.1112 243.33 10.4525 243.33 10.8168V11.402C243.33 11.9011 243.416 12.3242 243.588 12.6713C243.763 13.0155 244.005 13.278 244.315 13.4587C244.625 13.6366 244.985 13.7255 245.395 13.7255C245.662 13.7255 245.903 13.6882 246.118 13.6136C246.336 13.5362 246.524 13.4214 246.682 13.2694C246.839 13.1145 246.961 12.9223 247.047 12.6928L248.028 12.9682C247.925 13.301 247.752 13.5935 247.508 13.846C247.264 14.0955 246.963 14.2906 246.604 14.4312C246.246 14.5688 245.843 14.6377 245.395 14.6377ZM250.692 10.5242V14.5H249.676V7.89093H250.657V8.92359H250.743C250.898 8.58798 251.134 8.31834 251.449 8.11467C251.765 7.90814 252.172 7.80487 252.671 7.80487C253.119 7.80487 253.51 7.89666 253.846 8.08025C254.181 8.26097 254.442 8.53634 254.629 8.90638C254.815 9.27355 254.909 9.73825 254.909 10.3005V14.5H253.893V10.3693C253.893 9.85013 253.758 9.44566 253.489 9.15594C253.219 8.86335 252.849 8.71706 252.379 8.71706C252.054 8.71706 251.765 8.78734 251.509 8.9279C251.257 9.06845 251.058 9.27355 250.911 9.54319C250.765 9.81284 250.692 10.1398 250.692 10.5242ZM259.638 7.89093V8.75148H256.213V7.89093H259.638ZM257.212 6.3075H258.227V12.6068C258.227 12.8936 258.269 13.1088 258.352 13.2522C258.438 13.3928 258.547 13.4874 258.679 13.5362C258.814 13.5821 258.956 13.605 259.105 13.605C259.217 13.605 259.309 13.5993 259.38 13.5878C259.452 13.5735 259.509 13.562 259.552 13.5534L259.759 14.4656C259.69 14.4914 259.594 14.5172 259.471 14.543C259.347 14.5717 259.191 14.5861 259.002 14.5861C258.715 14.5861 258.434 14.5244 258.158 14.401C257.886 14.2777 257.659 14.0898 257.478 13.8374C257.301 13.5849 257.212 13.2665 257.212 12.8822V6.3075Z" fill="black"/>
<defs>
<linearGradient id="paint0_linear_5050_1417" x1="191.762" y1="18.605" x2="207.039" y2="5.94369" gradientUnits="userSpaceOnUse">
<stop stop-color="#7D2AE7"/>
<stop offset="0.5" stop-color="#4A4FEE"/>
<stop offset="1" stop-color="#00D9E3"/>
</linearGradient>
<linearGradient id="paint1_linear_5050_1417" x1="201.864" y1="6.9725" x2="207.396" y2="2.20736" gradientUnits="userSpaceOnUse">
<stop stop-color="#7D2AE7"/>
<stop offset="0.5" stop-color="#4A4FEE"/>
<stop offset="1" stop-color="#00D9E3"/>
</linearGradient>
<clipPath id="clip0_5050_1417">
<rect width="56" height="19" fill="white" transform="translate(0 1)"/>
</clipPath>
</defs>
</svg>
