<svg width="210" height="20" viewBox="0 0 210 20" fill="none" xmlns="http://www.w3.org/2000/svg">
<path d="M1.58856 16V4.81119H3.61544V14.3009H8.54332V16H1.58856ZM13.9301 16.1639C13.0888 16.1639 12.3622 15.9891 11.7503 15.6394C11.142 15.2861 10.674 14.7872 10.3462 14.1425C10.0184 13.4942 9.85451 12.7311 9.85451 11.8534C9.85451 10.9902 10.0184 10.2326 10.3462 9.58064C10.6776 8.92504 11.1402 8.41514 11.7339 8.05092C12.3276 7.68306 13.025 7.49913 13.8263 7.49913C14.3435 7.49913 14.8316 7.5829 15.2905 7.75044C15.753 7.91434 16.161 8.16929 16.5143 8.5153C16.8712 8.8613 17.1516 9.30201 17.3556 9.83741C17.5596 10.3692 17.6615 11.0029 17.6615 11.7386V12.3451H10.7833V11.012H15.7658C15.7621 10.6332 15.6802 10.2963 15.5199 10.0013C15.3597 9.70265 15.1357 9.46773 14.848 9.29655C14.5639 9.12536 14.2324 9.03977 13.8536 9.03977C13.4494 9.03977 13.0942 9.13811 12.7883 9.33479C12.4824 9.52783 12.2438 9.78278 12.0726 10.0996C11.9051 10.4129 11.8195 10.7571 11.8158 11.1322V12.2959C11.8158 12.7839 11.9051 13.2028 12.0835 13.5524C12.262 13.8985 12.5115 14.1643 12.832 14.3501C13.1525 14.5322 13.5277 14.6233 13.9574 14.6233C14.2452 14.6233 14.5056 14.5832 14.7387 14.5031C14.9718 14.4193 15.1739 14.2973 15.3451 14.137C15.5163 13.9768 15.6456 13.7783 15.733 13.5415L17.5796 13.7491C17.463 14.2372 17.2409 14.6633 16.9131 15.0275C16.5889 15.3881 16.1737 15.6686 15.6674 15.8689C15.1612 16.0656 14.5821 16.1639 13.9301 16.1639ZM21.7495 16.1694C21.2177 16.1694 20.7387 16.0747 20.3126 15.8853C19.8901 15.6922 19.555 15.4081 19.3074 15.033C19.0633 14.6579 18.9413 14.1953 18.9413 13.6453C18.9413 13.1718 19.0287 12.7803 19.2036 12.4707C19.3784 12.1611 19.6169 11.9135 19.9193 11.7277C20.2216 11.542 20.5621 11.4017 20.9409 11.307C21.3233 11.2087 21.7185 11.1377 22.1264 11.094C22.6181 11.043 23.0169 10.9975 23.3229 10.9574C23.6288 10.9137 23.851 10.8481 23.9894 10.7607C24.1314 10.6697 24.2025 10.5294 24.2025 10.34V10.3073C24.2025 9.89569 24.0805 9.577 23.8364 9.35118C23.5924 9.12536 23.2409 9.01246 22.782 9.01246C22.2976 9.01246 21.9134 9.11808 21.6293 9.32933C21.3488 9.54057 21.1594 9.79006 21.0611 10.0778L19.2145 9.81556C19.3602 9.30565 19.6006 8.87952 19.9356 8.53715C20.2707 8.19114 20.6805 7.93255 21.1649 7.76136C21.6493 7.58654 22.1847 7.49913 22.7711 7.49913C23.1754 7.49913 23.5778 7.54647 23.9785 7.64117C24.3791 7.73587 24.7452 7.89248 25.0766 8.11101C25.408 8.3259 25.6739 8.6191 25.8742 8.9906C26.0782 9.36211 26.1802 9.82649 26.1802 10.3837V16H24.279V14.8472H24.2134C24.0932 15.0803 23.9238 15.2989 23.7053 15.5028C23.4904 15.7032 23.2191 15.8652 22.8913 15.9891C22.5671 16.1093 22.1865 16.1694 21.7495 16.1694ZM22.263 14.7161C22.66 14.7161 23.0042 14.6378 23.2956 14.4812C23.5869 14.3209 23.8109 14.1097 23.9675 13.8475C24.1278 13.5852 24.2079 13.2993 24.2079 12.9897V12.0009C24.146 12.0519 24.0404 12.0992 23.8911 12.1429C23.7454 12.1866 23.5815 12.2249 23.3994 12.2576C23.2173 12.2904 23.037 12.3196 22.8585 12.3451C22.68 12.3706 22.5252 12.3924 22.3941 12.4106C22.0991 12.4507 21.835 12.5162 21.6019 12.6073C21.3688 12.6984 21.1849 12.8258 21.0502 12.9897C20.9154 13.15 20.848 13.3576 20.848 13.6125C20.848 13.9768 20.981 14.2517 21.2468 14.4375C21.5127 14.6233 21.8514 14.7161 22.263 14.7161ZM31.2829 16.1475C30.6237 16.1475 30.0336 15.9781 29.5128 15.6394C28.9919 15.3007 28.5804 14.809 28.2781 14.1643C27.9758 13.5197 27.8246 12.7366 27.8246 11.8151C27.8246 10.8827 27.9776 10.096 28.2835 9.45498C28.5931 8.81031 29.0102 8.32408 29.5346 7.99628C30.0591 7.66485 30.6437 7.49913 31.2884 7.49913C31.78 7.49913 32.1843 7.5829 32.5012 7.75044C32.8181 7.91434 33.0694 8.11283 33.2551 8.34593C33.4409 8.57539 33.5848 8.7921 33.6867 8.99607H33.7687V4.81119H35.7519V16H33.8069V14.6779H33.6867C33.5848 14.8818 33.4372 15.0986 33.2442 15.328C33.0512 15.5538 32.7962 15.7469 32.4793 15.9071C32.1625 16.0674 31.7637 16.1475 31.2829 16.1475ZM31.8347 14.5249C32.2535 14.5249 32.6105 14.412 32.9055 14.1862C33.2005 13.9567 33.4245 13.638 33.5775 13.2301C33.7304 12.8222 33.8069 12.3469 33.8069 11.8042C33.8069 11.2615 33.7304 10.7898 33.5775 10.3892C33.4281 9.98856 33.206 9.67716 32.9109 9.45498C32.6196 9.23281 32.2608 9.12172 31.8347 9.12172C31.394 9.12172 31.0261 9.23645 30.7311 9.46591C30.4361 9.69537 30.2139 10.0122 30.0646 10.4165C29.9152 10.8208 29.8406 11.2834 29.8406 11.8042C29.8406 12.3287 29.9152 12.7967 30.0646 13.2083C30.2175 13.6162 30.4415 13.9385 30.7366 14.1753C31.0352 14.4084 31.4013 14.5249 31.8347 14.5249ZM51.34 8.58632H49.2967C49.2384 8.25124 49.131 7.9544 48.9744 7.6958C48.8178 7.43357 48.6229 7.21139 48.3898 7.02928C48.1567 6.84717 47.8908 6.71059 47.5922 6.61954C47.2971 6.52484 46.9785 6.47749 46.6361 6.47749C46.0278 6.47749 45.4888 6.63046 45.019 6.93641C44.5491 7.23871 44.1813 7.68306 43.9154 8.26945C43.6495 8.8522 43.5166 9.56425 43.5166 10.4056C43.5166 11.2615 43.6495 11.9827 43.9154 12.5691C44.1849 13.1518 44.5528 13.5925 45.019 13.8912C45.4888 14.1862 46.026 14.3337 46.6306 14.3337C46.9657 14.3337 47.2789 14.29 47.5703 14.2026C47.8653 14.1115 48.1294 13.9786 48.3625 13.8038C48.5992 13.6289 48.7977 13.414 48.958 13.1591C49.1219 12.9041 49.2348 12.6128 49.2967 12.285L51.34 12.2959C51.2635 12.8277 51.0978 13.3266 50.8428 13.7928C50.5915 14.259 50.2619 14.6706 49.854 15.0275C49.446 15.3808 48.9689 15.6576 48.4226 15.858C47.8763 16.0546 47.2698 16.153 46.6033 16.153C45.6199 16.153 44.7421 15.9253 43.97 15.4701C43.1979 15.0148 42.5896 14.3574 42.1453 13.4978C41.7009 12.6383 41.4787 11.6075 41.4787 10.4056C41.4787 9.20003 41.7027 8.16929 42.1507 7.31337C42.5987 6.45382 43.2088 5.7964 43.9809 5.34113C44.7531 4.88585 45.6272 4.65822 46.6033 4.65822C47.2261 4.65822 47.8052 4.74563 48.3406 4.92045C48.876 5.09528 49.3532 5.35205 49.772 5.69078C50.1909 6.02586 50.5351 6.43743 50.8046 6.92548C51.0777 7.40989 51.2562 7.96351 51.34 8.58632ZM56.7691 16.1639C55.9496 16.1639 55.2394 15.9836 54.6384 15.623C54.0375 15.2625 53.5713 14.758 53.2398 14.1097C52.912 13.4614 52.7481 12.7038 52.7481 11.837C52.7481 10.9701 52.912 10.2107 53.2398 9.55878C53.5713 8.90683 54.0375 8.40057 54.6384 8.03999C55.2394 7.67941 55.9496 7.49913 56.7691 7.49913C57.5886 7.49913 58.2988 7.67941 58.8998 8.03999C59.5008 8.40057 59.9651 8.90683 60.2929 9.55878C60.6244 10.2107 60.7901 10.9701 60.7901 11.837C60.7901 12.7038 60.6244 13.4614 60.2929 14.1097C59.9651 14.758 59.5008 15.2625 58.8998 15.623C58.2988 15.9836 57.5886 16.1639 56.7691 16.1639ZM56.78 14.5795C57.2244 14.5795 57.5959 14.4575 57.8946 14.2135C58.1932 13.9658 58.4154 13.6344 58.5611 13.2192C58.7104 12.804 58.7851 12.3414 58.7851 11.8315C58.7851 11.318 58.7104 10.8536 58.5611 10.4384C58.4154 10.0195 58.1932 9.68626 57.8946 9.43859C57.5959 9.19092 57.2244 9.06709 56.78 9.06709C56.3248 9.06709 55.946 9.19092 55.6437 9.43859C55.345 9.68626 55.121 10.0195 54.9717 10.4384C54.826 10.8536 54.7532 11.318 54.7532 11.8315C54.7532 12.3414 54.826 12.804 54.9717 13.2192C55.121 13.6344 55.345 13.9658 55.6437 14.2135C55.946 14.4575 56.3248 14.5795 56.78 14.5795ZM64.4464 11.083V16H62.4687V7.60839H64.359V9.03431H64.4573C64.6504 8.56447 64.9581 8.19114 65.3806 7.91434C65.8068 7.63753 66.3331 7.49913 66.9595 7.49913C67.5386 7.49913 68.0431 7.62296 68.4728 7.87063C68.9063 8.1183 69.2413 8.47705 69.4781 8.9469C69.7185 9.41674 69.8368 9.98674 69.8332 10.6569V16H67.8555V10.9628C67.8555 10.402 67.7098 9.96307 67.4184 9.6462C67.1307 9.32933 66.7319 9.17089 66.222 9.17089C65.876 9.17089 65.5682 9.24738 65.2987 9.40035C65.0328 9.54968 64.8234 9.76639 64.6704 10.0505C64.5211 10.3346 64.4464 10.6788 64.4464 11.083ZM79.0388 7.60839L76.0504 16H73.8651L70.8767 7.60839H72.9855L74.9141 13.842H75.0015L76.9355 7.60839H79.0388ZM83.837 16.1639C82.9956 16.1639 82.269 15.9891 81.6571 15.6394C81.0489 15.2861 80.5809 14.7872 80.2531 14.1425C79.9253 13.4942 79.7614 12.7311 79.7614 11.8534C79.7614 10.9902 79.9253 10.2326 80.2531 9.58064C80.5845 8.92504 81.0471 8.41514 81.6407 8.05092C82.2344 7.68306 82.9319 7.49913 83.7332 7.49913C84.2504 7.49913 84.7384 7.5829 85.1973 7.75044C85.6599 7.91434 86.0678 8.16929 86.4211 8.5153C86.7781 8.8613 87.0585 9.30201 87.2625 9.83741C87.4664 10.3692 87.5684 11.0029 87.5684 11.7386V12.3451H80.6901V11.012H85.6726C85.669 10.6332 85.5871 10.2963 85.4268 10.0013C85.2665 9.70265 85.0425 9.46773 84.7548 9.29655C84.4707 9.12536 84.1393 9.03977 83.7605 9.03977C83.3562 9.03977 83.0011 9.13811 82.6952 9.33479C82.3892 9.52783 82.1506 9.78278 81.9795 10.0996C81.8119 10.4129 81.7263 10.7571 81.7227 11.1322V12.2959C81.7227 12.7839 81.8119 13.2028 81.9904 13.5524C82.1689 13.8985 82.4183 14.1643 82.7389 14.3501C83.0594 14.5322 83.4345 14.6233 83.8643 14.6233C84.152 14.6233 84.4124 14.5832 84.6455 14.5031C84.8786 14.4193 85.0808 14.2973 85.252 14.137C85.4232 13.9768 85.5525 13.7783 85.6399 13.5415L87.4865 13.7491C87.3699 14.2372 87.1477 14.6633 86.8199 15.0275C86.4958 15.3881 86.0806 15.6686 85.5743 15.8689C85.068 16.0656 84.4889 16.1639 83.837 16.1639ZM89.2415 16V7.60839H91.1591V9.00699H91.2466C91.3995 8.52258 91.6618 8.14926 92.0333 7.88702C92.4084 7.62114 92.8364 7.4882 93.3171 7.4882C93.4264 7.4882 93.5484 7.49366 93.6832 7.50459C93.8216 7.51187 93.9363 7.52462 94.0274 7.54283V9.36211C93.9436 9.33297 93.8107 9.30747 93.6285 9.28562C93.4501 9.26012 93.2771 9.24738 93.1095 9.24738C92.749 9.24738 92.4248 9.32568 92.1371 9.4823C91.853 9.63527 91.629 9.84834 91.4651 10.1215C91.3012 10.3947 91.2192 10.7097 91.2192 11.0667V16H89.2415ZM101.974 9.82649L100.171 10.0232C100.12 9.84105 100.031 9.66987 99.9031 9.50962C99.7793 9.34936 99.6118 9.22006 99.4005 9.12172C99.1893 9.02338 98.9307 8.97421 98.6247 8.97421C98.2132 8.97421 97.8672 9.06345 97.5867 9.24191C97.3099 9.42038 97.1733 9.65166 97.177 9.93575C97.1733 10.1798 97.2625 10.3783 97.4447 10.5312C97.6304 10.6842 97.9364 10.8099 98.3625 10.9082L99.7939 11.2142C100.588 11.3853 101.178 11.6567 101.564 12.0282C101.954 12.3997 102.15 12.8859 102.154 13.4869C102.15 14.015 101.996 14.4812 101.69 14.8855C101.387 15.2861 100.967 15.5994 100.428 15.8252C99.8886 16.051 99.2694 16.1639 98.5701 16.1639C97.543 16.1639 96.7162 15.949 96.0898 15.5192C95.4633 15.0858 95.09 14.483 94.9698 13.7109L96.8983 13.5251C96.9857 13.9039 97.1715 14.1898 97.4556 14.3829C97.7397 14.5759 98.1094 14.6724 98.5646 14.6724C99.0345 14.6724 99.4114 14.5759 99.6955 14.3829C99.9833 14.1898 100.127 13.9513 100.127 13.6672C100.127 13.4268 100.034 13.2283 99.8485 13.0717C99.6664 12.9151 99.3823 12.7949 98.9962 12.7111L97.5648 12.4106C96.7599 12.2431 96.1644 11.9608 95.7784 11.5638C95.3923 11.1632 95.2011 10.6569 95.2047 10.045C95.2011 9.52783 95.3413 9.07984 95.6254 8.70105C95.9131 8.31862 96.3119 8.0236 96.8218 7.816C97.3354 7.60475 97.9272 7.49913 98.5974 7.49913C99.5808 7.49913 100.355 7.70855 100.919 8.1274C101.487 8.54626 101.839 9.11262 101.974 9.82649ZM103.785 16V7.60839H105.763V16H103.785ZM104.779 6.41739C104.466 6.41739 104.196 6.31359 103.971 6.10599C103.745 5.89474 103.632 5.64161 103.632 5.34659C103.632 5.04793 103.745 4.7948 103.971 4.58719C104.196 4.37595 104.466 4.27032 104.779 4.27032C105.096 4.27032 105.366 4.37595 105.588 4.58719C105.814 4.7948 105.926 5.04793 105.926 5.34659C105.926 5.64161 105.814 5.89474 105.588 6.10599C105.366 6.31359 105.096 6.41739 104.779 6.41739ZM111.457 16.1639C110.637 16.1639 109.927 15.9836 109.326 15.623C108.725 15.2625 108.259 14.758 107.927 14.1097C107.6 13.4614 107.436 12.7038 107.436 11.837C107.436 10.9701 107.6 10.2107 107.927 9.55878C108.259 8.90683 108.725 8.40057 109.326 8.03999C109.927 7.67941 110.637 7.49913 111.457 7.49913C112.276 7.49913 112.986 7.67941 113.587 8.03999C114.188 8.40057 114.653 8.90683 114.98 9.55878C115.312 10.2107 115.478 10.9701 115.478 11.837C115.478 12.7038 115.312 13.4614 114.98 14.1097C114.653 14.758 114.188 15.2625 113.587 15.623C112.986 15.9836 112.276 16.1639 111.457 16.1639ZM111.468 14.5795C111.912 14.5795 112.283 14.4575 112.582 14.2135C112.881 13.9658 113.103 13.6344 113.249 13.2192C113.398 12.804 113.473 12.3414 113.473 11.8315C113.473 11.318 113.398 10.8536 113.249 10.4384C113.103 10.0195 112.881 9.68626 112.582 9.43859C112.283 9.19092 111.912 9.06709 111.468 9.06709C111.012 9.06709 110.633 9.19092 110.331 9.43859C110.033 9.68626 109.809 10.0195 109.659 10.4384C109.514 10.8536 109.441 11.318 109.441 11.8315C109.441 12.3414 109.514 12.804 109.659 13.2192C109.809 13.6344 110.033 13.9658 110.331 14.2135C110.633 14.4575 111.012 14.5795 111.468 14.5795ZM119.134 11.083V16H117.156V7.60839H119.046V9.03431H119.145C119.338 8.56447 119.646 8.19114 120.068 7.91434C120.494 7.63753 121.021 7.49913 121.647 7.49913C122.226 7.49913 122.731 7.62296 123.16 7.87063C123.594 8.1183 123.929 8.47705 124.166 8.9469C124.406 9.41674 124.524 9.98674 124.521 10.6569V16H122.543V10.9628C122.543 10.402 122.397 9.96307 122.106 9.6462C121.818 9.32933 121.419 9.17089 120.909 9.17089C120.563 9.17089 120.256 9.24738 119.986 9.40035C119.72 9.54968 119.511 9.76639 119.358 10.0505C119.209 10.3346 119.134 10.6788 119.134 11.083Z" fill="#4867FA"/>
<line opacity="0.5" x1="132.924" y1="3.07617" x2="132.924" y2="16.9223" stroke="#4867FA" stroke-width="1.53846"/>
<path d="M152.973 10.9922C148.176 11.7812 147.323 12.7834 146.683 18.626C146.662 18.8179 146.384 18.8179 146.363 18.626C145.723 12.7834 144.87 11.8025 140.073 10.9922C139.881 10.9709 139.881 10.6937 140.073 10.6724C144.87 9.88342 145.723 8.90255 146.363 3.05995C146.384 2.86804 146.662 2.86804 146.683 3.05995C147.323 8.90255 148.176 9.8621 152.973 10.6724C153.144 10.6937 153.144 10.9496 152.973 10.9922Z" fill="black"/>
<path d="M152.973 10.9922C148.176 11.7812 147.323 12.7834 146.683 18.626C146.662 18.8179 146.384 18.8179 146.363 18.626C145.723 12.7834 144.87 11.8025 140.073 10.9922C139.881 10.9709 139.881 10.6937 140.073 10.6724C144.87 9.88342 145.723 8.90255 146.363 3.05995C146.384 2.86804 146.662 2.86804 146.683 3.05995C147.323 8.90255 148.176 9.8621 152.973 10.6724C153.144 10.6937 153.144 10.9496 152.973 10.9922Z" fill="url(#paint0_linear_5126_1164)"/>
<path d="M155.02 4.25305C153.528 4.55158 153.101 5.04202 152.845 6.79053C152.824 6.98244 152.547 6.98244 152.526 6.79053C152.27 5.04202 151.843 4.55158 150.351 4.23173C150.18 4.18908 150.18 3.95453 150.351 3.91188C151.822 3.61335 152.27 3.12292 152.526 1.3744C152.547 1.18249 152.824 1.18249 152.845 1.3744C153.101 3.12292 153.528 3.61335 155.02 3.9332C155.191 3.97585 155.191 4.23173 155.02 4.25305Z" fill="black"/>
<path d="M155.02 4.25305C153.528 4.55158 153.101 5.04202 152.845 6.79053C152.824 6.98244 152.547 6.98244 152.526 6.79053C152.27 5.04202 151.843 4.55158 150.351 4.23173C150.18 4.18908 150.18 3.95453 150.351 3.91188C151.822 3.61335 152.27 3.12292 152.526 1.3744C152.547 1.18249 152.824 1.18249 152.845 1.3744C153.101 3.12292 153.528 3.61335 155.02 3.9332C155.191 3.97585 155.191 4.23173 155.02 4.25305Z" fill="url(#paint1_linear_5126_1164)"/>
<path d="M161.297 14H160.16L163.447 5.04895H164.566L167.853 14H166.716L164.042 6.46503H163.972L161.297 14ZM161.716 10.5035H166.297V11.465H161.716V10.5035ZM170.331 5.04895V14H169.247V5.04895H170.331ZM176.333 14H175.196L178.483 5.04895H179.602L182.889 14H181.752L179.078 6.46503H179.008L176.333 14ZM176.752 10.5035H181.333V11.465H176.752V10.5035ZM186.853 16.6573C186.355 16.6573 185.926 16.5932 185.568 16.465C185.21 16.3397 184.911 16.1737 184.672 15.9668C184.436 15.7628 184.248 15.5443 184.108 15.3112L184.93 14.7343C185.023 14.8566 185.141 14.9965 185.284 15.1538C185.427 15.3141 185.622 15.4525 185.87 15.5691C186.12 15.6885 186.448 15.7483 186.853 15.7483C187.395 15.7483 187.842 15.6171 188.195 15.3549C188.547 15.0927 188.724 14.6818 188.724 14.1224V12.7587H188.636C188.56 12.8811 188.453 13.0326 188.313 13.2133C188.176 13.391 187.978 13.5498 187.718 13.6897C187.462 13.8266 187.115 13.8951 186.678 13.8951C186.136 13.8951 185.65 13.7669 185.218 13.5105C184.79 13.2541 184.451 12.8811 184.2 12.3916C183.952 11.9021 183.828 11.3077 183.828 10.6084C183.828 9.92075 183.949 9.32197 184.191 8.81206C184.433 8.29924 184.77 7.90297 185.201 7.62325C185.632 7.34062 186.13 7.1993 186.696 7.1993C187.133 7.1993 187.479 7.27214 187.736 7.41783C187.995 7.56061 188.193 7.72378 188.33 7.90734C188.47 8.088 188.578 8.2366 188.654 8.35315H188.759V7.28671H189.755V14.1923C189.755 14.7692 189.624 15.2383 189.362 15.5997C189.102 15.9639 188.753 16.2305 188.313 16.3995C187.876 16.5714 187.389 16.6573 186.853 16.6573ZM186.818 12.9685C187.232 12.9685 187.581 12.8738 187.867 12.6844C188.152 12.495 188.37 12.2226 188.518 11.8671C188.667 11.5117 188.741 11.0862 188.741 10.5909C188.741 10.1072 188.668 9.68036 188.522 9.31031C188.377 8.94027 188.161 8.65035 187.876 8.44056C187.59 8.23077 187.238 8.12587 186.818 8.12587C186.381 8.12587 186.017 8.2366 185.725 8.45804C185.437 8.67949 185.22 8.97669 185.074 9.34965C184.931 9.72261 184.86 10.1364 184.86 10.5909C184.86 11.0571 184.933 11.4694 185.078 11.8278C185.227 12.1833 185.446 12.463 185.734 12.667C186.025 12.868 186.387 12.9685 186.818 12.9685ZM194.458 14.1399C193.811 14.1399 193.253 13.9971 192.784 13.7115C192.318 13.4231 191.958 13.021 191.704 12.5052C191.454 11.9866 191.328 11.3834 191.328 10.6958C191.328 10.0082 191.454 9.4021 191.704 8.87762C191.958 8.35023 192.31 7.93939 192.762 7.6451C193.217 7.3479 193.747 7.1993 194.353 7.1993C194.703 7.1993 195.048 7.25758 195.389 7.37413C195.73 7.49068 196.04 7.68007 196.32 7.94231C196.599 8.20163 196.822 8.54545 196.988 8.97378C197.154 9.4021 197.238 9.92949 197.238 10.5559V10.993H192.063V10.1014H196.189C196.189 9.72261 196.113 9.38462 195.961 9.08741C195.813 8.79021 195.6 8.55565 195.323 8.38374C195.049 8.21183 194.726 8.12587 194.353 8.12587C193.942 8.12587 193.587 8.22786 193.286 8.43182C192.989 8.63287 192.761 8.8951 192.6 9.21853C192.44 9.54196 192.36 9.88869 192.36 10.2587V10.8531C192.36 11.3601 192.447 11.7899 192.622 12.1425C192.8 12.4921 193.046 12.7587 193.361 12.9423C193.675 13.123 194.041 13.2133 194.458 13.2133C194.729 13.2133 194.974 13.1754 195.192 13.0997C195.414 13.021 195.604 12.9044 195.765 12.75C195.925 12.5927 196.049 12.3974 196.136 12.1643L197.133 12.4441C197.028 12.7821 196.851 13.0793 196.604 13.3357C196.356 13.5892 196.05 13.7873 195.686 13.9301C195.322 14.0699 194.912 14.1399 194.458 14.1399ZM199.838 9.96154V14H198.807V7.28671H199.803V8.33566H199.891C200.048 7.99476 200.287 7.72086 200.607 7.51399C200.928 7.3042 201.342 7.1993 201.849 7.1993C202.303 7.1993 202.701 7.29254 203.042 7.47902C203.383 7.66259 203.648 7.94231 203.837 8.31818C204.027 8.69114 204.121 9.16317 204.121 9.73427V14H203.09V9.8042C203.09 9.27681 202.953 8.86597 202.679 8.57168C202.405 8.27448 202.029 8.12587 201.551 8.12587C201.222 8.12587 200.928 8.19726 200.668 8.34003C200.412 8.48281 200.21 8.69114 200.061 8.96503C199.912 9.23893 199.838 9.5711 199.838 9.96154ZM208.926 7.28671V8.16084H205.447V7.28671H208.926ZM206.461 5.67832H207.492V12.0769C207.492 12.3683 207.534 12.5868 207.619 12.7325C207.706 12.8753 207.817 12.9714 207.951 13.021C208.088 13.0676 208.232 13.0909 208.384 13.0909C208.497 13.0909 208.591 13.0851 208.663 13.0734C208.736 13.0589 208.795 13.0472 208.838 13.0385L209.048 13.965C208.978 13.9913 208.881 14.0175 208.755 14.0437C208.63 14.0728 208.471 14.0874 208.279 14.0874C207.987 14.0874 207.702 14.0248 207.422 13.8995C207.145 13.7742 206.915 13.5833 206.732 13.3269C206.551 13.0705 206.461 12.7471 206.461 12.3566V5.67832Z" fill="black"/>
<defs>
<linearGradient id="paint0_linear_5126_1164" x1="139.979" y1="18.7413" x2="155.498" y2="5.88033" gradientUnits="userSpaceOnUse">
<stop stop-color="#7D2AE7"/>
<stop offset="0.5" stop-color="#4A4FEE"/>
<stop offset="1" stop-color="#00D9E3"/>
</linearGradient>
<linearGradient id="paint1_linear_5126_1164" x1="150.242" y1="6.92416" x2="155.861" y2="2.08389" gradientUnits="userSpaceOnUse">
<stop stop-color="#7D2AE7"/>
<stop offset="0.5" stop-color="#4A4FEE"/>
<stop offset="1" stop-color="#00D9E3"/>
</linearGradient>
</defs>
</svg>
