<svg width="235" height="20" viewBox="0 0 235 20" fill="none" xmlns="http://www.w3.org/2000/svg">
<path d="M119.241 8.58632H117.198C117.139 8.25124 117.032 7.9544 116.875 7.6958C116.719 7.43357 116.524 7.21139 116.291 7.02928C116.058 6.84717 115.792 6.71059 115.493 6.61954C115.198 6.52484 114.879 6.47749 114.537 6.47749C113.929 6.47749 113.39 6.63046 112.92 6.93641C112.45 7.23871 112.082 7.68306 111.816 8.26945C111.55 8.8522 111.417 9.56425 111.417 10.4056C111.417 11.2615 111.55 11.9827 111.816 12.5691C112.086 13.1518 112.454 13.5925 112.92 13.8912C113.39 14.1862 113.927 14.3337 114.531 14.3337C114.867 14.3337 115.18 14.29 115.471 14.2026C115.766 14.1115 116.03 13.9786 116.263 13.8038C116.5 13.6289 116.699 13.414 116.859 13.1591C117.023 12.9041 117.136 12.6128 117.198 12.285L119.241 12.2959C119.164 12.8277 118.999 13.3266 118.744 13.7928C118.492 14.259 118.163 14.6706 117.755 15.0275C117.347 15.3808 116.87 15.6576 116.323 15.858C115.777 16.0546 115.171 16.153 114.504 16.153C113.521 16.153 112.643 15.9253 111.871 15.4701C111.099 15.0148 110.49 14.3574 110.046 13.4978C109.602 12.6383 109.38 11.6075 109.38 10.4056C109.38 9.20003 109.604 8.16929 110.052 7.31337C110.5 6.45382 111.11 5.7964 111.882 5.34113C112.654 4.88585 113.528 4.65822 114.504 4.65822C115.127 4.65822 115.706 4.74563 116.241 4.92045C116.777 5.09528 117.254 5.35205 117.673 5.69078C118.092 6.02586 118.436 6.43743 118.705 6.92548C118.979 7.40989 119.157 7.96351 119.241 8.58632ZM122.91 11.083V16H120.933V4.81119H122.867V9.03431H122.965C123.162 8.56082 123.466 8.1875 123.877 7.91434C124.293 7.63753 124.821 7.49913 125.462 7.49913C126.044 7.49913 126.553 7.62114 126.986 7.86517C127.419 8.10919 127.754 8.46613 127.991 8.93597C128.232 9.40581 128.352 9.97946 128.352 10.6569V16H126.374V10.9628C126.374 10.3983 126.228 9.95943 125.937 9.6462C125.649 9.32933 125.245 9.17089 124.724 9.17089C124.375 9.17089 124.061 9.24738 123.784 9.40035C123.511 9.54968 123.296 9.76639 123.14 10.0505C122.987 10.3346 122.91 10.6788 122.91 11.083ZM132.706 16.1694C132.174 16.1694 131.695 16.0747 131.269 15.8853C130.846 15.6922 130.511 15.4081 130.263 15.033C130.019 14.6579 129.897 14.1953 129.897 13.6453C129.897 13.1718 129.985 12.7803 130.16 12.4707C130.335 12.1611 130.573 11.9135 130.875 11.7277C131.178 11.542 131.518 11.4017 131.897 11.307C132.279 11.2087 132.675 11.1377 133.083 11.094C133.574 11.043 133.973 10.9975 134.279 10.9574C134.585 10.9137 134.807 10.8481 134.946 10.7607C135.088 10.6697 135.159 10.5294 135.159 10.34V10.3073C135.159 9.89569 135.037 9.577 134.793 9.35118C134.549 9.12536 134.197 9.01246 133.738 9.01246C133.254 9.01246 132.869 9.11808 132.585 9.32933C132.305 9.54057 132.116 9.79006 132.017 10.0778L130.171 9.81556C130.316 9.30565 130.557 8.87952 130.892 8.53715C131.227 8.19114 131.637 7.93255 132.121 7.76136C132.605 7.58654 133.141 7.49913 133.727 7.49913C134.132 7.49913 134.534 7.54647 134.935 7.64117C135.335 7.73587 135.701 7.89248 136.033 8.11101C136.364 8.3259 136.63 8.6191 136.83 8.9906C137.034 9.36211 137.136 9.82649 137.136 10.3837V16H135.235V14.8472H135.17C135.049 15.0803 134.88 15.2989 134.661 15.5028C134.447 15.7032 134.175 15.8652 133.847 15.9891C133.523 16.1093 133.143 16.1694 132.706 16.1694ZM133.219 14.7161C133.616 14.7161 133.96 14.6378 134.252 14.4812C134.543 14.3209 134.767 14.1097 134.924 13.8475C135.084 13.5852 135.164 13.2993 135.164 12.9897V12.0009C135.102 12.0519 134.997 12.0992 134.847 12.1429C134.702 12.1866 134.538 12.2249 134.355 12.2576C134.173 12.2904 133.993 12.3196 133.815 12.3451C133.636 12.3706 133.481 12.3924 133.35 12.4106C133.055 12.4507 132.791 12.5162 132.558 12.6073C132.325 12.6984 132.141 12.8258 132.006 12.9897C131.872 13.15 131.804 13.3576 131.804 13.6125C131.804 13.9768 131.937 14.2517 132.203 14.4375C132.469 14.6233 132.808 14.7161 133.219 14.7161ZM143.238 7.60839V9.13811H138.414V7.60839H143.238ZM139.605 5.5979H141.583V13.476C141.583 13.7418 141.623 13.9458 141.703 14.0878C141.787 14.2263 141.896 14.3209 142.031 14.3719C142.166 14.4229 142.315 14.4484 142.479 14.4484C142.603 14.4484 142.716 14.4393 142.818 14.4211C142.923 14.4029 143.003 14.3865 143.058 14.3719L143.391 15.9181C143.286 15.9545 143.135 15.9945 142.938 16.0382C142.745 16.0819 142.508 16.1074 142.228 16.1147C141.732 16.1293 141.286 16.0546 140.889 15.8907C140.492 15.7232 140.177 15.4646 139.944 15.1149C139.715 14.7653 139.602 14.3282 139.605 13.8038V5.5979Z" fill="black"/>
<path d="M9.57422 1.30566C11.8789 1.30667 14.043 2.2042 15.6699 3.83301C17.2968 5.4614 18.1924 7.62739 18.1914 9.92969C18.1892 14.6807 14.3234 18.5469 9.57422 18.5469H9.57129C8.14441 18.5464 6.7421 18.1912 5.49316 17.5186L1.0293 18.6904L0.836914 18.7402L0.889648 18.5498L2.08301 14.1865C1.34497 12.8903 0.956533 11.4237 0.957031 9.92188C0.959231 5.1709 4.82465 1.30577 9.57422 1.30566ZM9.57715 2.9707C5.7423 2.97084 2.6228 6.08952 2.62109 9.92285C2.62064 11.1543 2.94392 12.3566 3.55762 13.4141L3.68457 13.623L3.85254 13.8906L3.87891 13.9336L3.86621 13.9824L3.2041 16.3984L5.6875 15.7471L5.7334 15.7354L5.77441 15.7598L6.0332 15.9131C7.10037 16.546 8.32411 16.8818 9.57129 16.8818H9.57422C13.4063 16.8818 16.5259 13.7624 16.5273 9.92871C16.5278 8.07084 15.8061 6.3238 14.4932 5.00977C13.1806 3.69521 11.4345 2.97119 9.57715 2.9707ZM6.97656 5.88867C7.01407 5.89052 7.13416 5.87717 7.24316 5.92871C7.36145 5.9847 7.46347 6.10434 7.55469 6.32324L7.92871 7.23242C8.06477 7.56291 8.18144 7.84405 8.20605 7.89355C8.26637 8.01419 8.31827 8.17999 8.22461 8.36816C8.15653 8.50529 8.11481 8.60953 7.99707 8.74707C7.94768 8.80477 7.89129 8.87455 7.83496 8.94238L7.67188 9.12598C7.61565 9.18168 7.58075 9.21976 7.56543 9.26074C7.55421 9.29094 7.54858 9.33709 7.59668 9.41992C7.71851 9.62933 8.1377 10.3132 8.75586 10.8643L9.04785 11.1084C9.71135 11.627 10.2439 11.8043 10.4395 11.9023C10.5379 11.9517 10.5977 11.9619 10.6377 11.957C10.6729 11.9528 10.7109 11.9343 10.7617 11.876L11.0898 11.4883C11.2229 11.3266 11.3575 11.1573 11.4258 11.0547C11.5088 10.9301 11.6058 10.8587 11.7266 10.8447C11.8348 10.8323 11.9441 10.87 12.0381 10.9043C12.1424 10.9423 12.4597 11.0921 12.7686 11.2412C12.9425 11.3252 13.1168 11.4111 13.2559 11.4795L13.2549 11.4756L13.502 11.5996C13.6013 11.6494 13.6981 11.6938 13.7686 11.7324C13.8392 11.7712 13.9117 11.8186 13.9551 11.8906H13.9561C13.9841 11.9376 13.9942 12.0049 13.999 12.0664C14.0043 12.1342 14.0042 12.2181 13.9961 12.3125C13.9798 12.5015 13.9336 12.7418 13.8418 12.999C13.74 13.2843 13.4555 13.5384 13.165 13.7246C12.8717 13.9126 12.5419 14.0502 12.3164 14.084C11.9411 14.1401 11.4584 14.1648 10.9268 13.9961C10.6164 13.8976 10.2169 13.7648 9.70508 13.5439C7.54 12.6093 6.1294 10.4331 6.0293 10.2998C5.97514 10.2273 5.75391 9.93312 5.5459 9.52344C5.33859 9.11508 5.13965 8.58183 5.13965 8.0332C5.13976 6.93994 5.7177 6.39692 5.91309 6.18359C6.13304 5.94359 6.3956 5.88095 6.56348 5.88086C6.70504 5.88086 6.84959 5.88205 6.97656 5.88867Z" fill="#19C056" stroke="#19C056" stroke-width="0.228797"/>
<g clip-path="url(#clip0_5050_1443)">
<g filter="url(#filter0_d_5050_1443)">
<path d="M34.6837 11.5757H34.6487L32.4873 2.85547H29.8823L27.6851 11.469H27.6501L25.648 2.85547H22.8662L26.215 15.5106H29.0326L31.1406 6.89626H31.1764L33.3203 15.5106H36.0845L39.4867 2.85547H36.7582L34.6845 11.5757H34.6837ZM47.9729 7.13557C47.7252 6.8109 47.3853 6.55711 46.9547 6.37344C46.5234 6.19129 45.9708 6.09984 45.2979 6.09984C44.8253 6.09984 44.3414 6.22025 43.8445 6.46337C43.3483 6.70497 42.9414 7.09213 42.622 7.62409H42.5687V2.85547H40.0529V15.5098H42.5687V10.7069C42.5687 9.77329 42.7219 9.10338 43.0298 8.69488C43.3369 8.2879 43.8331 8.08365 44.5182 8.08365C45.1203 8.08365 45.5395 8.26961 45.7765 8.64229C46.0127 9.01421 46.1309 9.57818 46.1309 10.3342V15.5098H48.6474V9.87389C48.6474 9.30686 48.5963 8.79014 48.4965 8.32296C48.3959 7.8573 48.2221 7.461 47.9737 7.13557H47.9729ZM58.3386 13.4719V8.70478C58.3386 8.14843 58.2151 7.70259 57.9659 7.36649C57.7182 7.02963 57.3997 6.7667 57.0102 6.57769C56.62 6.38868 56.1886 6.26141 55.7161 6.19663C55.2436 6.13185 54.7772 6.09908 54.3169 6.09908C53.8093 6.09908 53.304 6.14861 52.8025 6.24998C52.2995 6.35058 51.8483 6.51901 51.4467 6.75527C51.0451 6.99153 50.7135 7.30476 50.4552 7.69421C50.1945 8.08442 50.0467 8.57446 50.0116 9.16587H52.5274C52.5746 8.66973 52.7408 8.31458 53.0243 8.10194C53.3078 7.88931 53.6973 7.78338 54.1934 7.78338C54.4175 7.78338 54.627 7.79786 54.8222 7.82758C55.0165 7.8573 55.188 7.91522 55.3358 8.00439C55.4837 8.0928 55.6018 8.21702 55.6902 8.37707C55.7786 8.53636 55.8228 8.7528 55.8228 9.02335C55.8343 9.284 55.7573 9.48063 55.5927 9.61705C55.4265 9.75347 55.2025 9.85712 54.9189 9.92723C54.6354 9.99887 54.3108 10.0522 53.9442 10.0865C53.5776 10.1231 53.2057 10.1711 52.8284 10.229C52.4497 10.2885 52.0747 10.3677 51.7035 10.4683C51.3316 10.5682 50.9993 10.7198 50.7105 10.9195C50.4209 11.1215 50.1846 11.3898 50.0009 11.7266C49.818 12.0635 49.7266 12.4926 49.7266 13.0116C49.7266 13.4841 49.8066 13.8918 49.9659 14.234C50.1252 14.5777 50.347 14.8605 50.6305 15.0853C50.914 15.3101 51.2447 15.4755 51.6228 15.5822C52 15.6881 52.4085 15.7415 52.8452 15.7415C53.4122 15.7415 53.9678 15.6584 54.5104 15.4938C55.0538 15.3269 55.5271 15.0388 55.9288 14.6242C55.9402 14.7782 55.9608 14.9291 55.9905 15.0762C56.0202 15.2232 56.0583 15.3688 56.1056 15.5098H58.6572C58.539 15.3216 58.456 15.0381 58.4087 14.6593C58.3607 14.2813 58.3371 13.8865 58.3371 13.4719H58.3386ZM55.8228 11.9652C55.8228 12.1084 55.8083 12.2974 55.7786 12.5329C55.7497 12.77 55.6696 13.0024 55.5393 13.2333C55.409 13.4635 55.2078 13.6624 54.9365 13.827C54.6652 13.9932 54.281 14.0755 53.7841 14.0755C53.5837 14.0755 53.3886 14.058 53.1996 14.0214C53.0106 13.9863 52.8452 13.9238 52.7034 13.8354C52.5617 13.747 52.4497 13.6258 52.3666 13.4719C52.2843 13.3179 52.2424 13.1297 52.2424 12.9056C52.2424 12.6694 52.2843 12.4735 52.3666 12.3203C52.4497 12.1671 52.5586 12.0398 52.6951 11.9392C52.83 11.8386 52.99 11.7594 53.1729 11.6999C53.3558 11.6413 53.5418 11.594 53.7316 11.5582C53.932 11.5231 54.1332 11.4926 54.3336 11.4698C54.5356 11.4469 54.7269 11.4164 54.9098 11.3814C55.0935 11.3456 55.2642 11.3013 55.4242 11.248C55.5835 11.1947 55.7161 11.1222 55.8228 11.027V11.9659V11.9652ZM63.0348 3.60007H60.5183V6.34677H58.9948V8.0303H60.5183V13.4368C60.5183 13.8979 60.596 14.2698 60.7492 14.5533C60.9032 14.8369 61.1127 15.0563 61.378 15.2095C61.6439 15.3635 61.9511 15.4664 62.3001 15.519C62.6477 15.5715 63.0181 15.599 63.4075 15.599C63.6567 15.599 63.9097 15.5929 64.1704 15.5822C64.4295 15.57 64.6658 15.5472 64.8792 15.5106V13.5611C64.7603 13.5847 64.6368 13.6037 64.5065 13.6144C64.3769 13.6266 64.2413 13.6327 64.0995 13.6327C63.675 13.6327 63.3907 13.5611 63.249 13.4193C63.108 13.2775 63.0371 12.994 63.0371 12.568V8.0303H64.8799V6.34677H63.0371V3.60007H63.0348ZM73.4348 11.4965C73.2694 11.2068 73.0507 10.9645 72.7794 10.7694C72.5081 10.575 72.1971 10.418 71.8496 10.2992C71.5005 10.1818 71.1431 10.0819 70.7773 9.99887C70.4229 9.9158 70.0754 9.83883 69.7324 9.76795C69.3894 9.69707 69.0853 9.61705 68.8194 9.52941C68.5541 9.44024 68.3392 9.32592 68.1738 9.1834C68.0077 9.04165 67.9262 8.8595 67.9262 8.63391C67.9262 8.4449 67.9719 8.294 68.0671 8.18197C68.1616 8.06993 68.2775 7.98458 68.4132 7.92437C68.5496 7.86568 68.6989 7.82758 68.8643 7.80929C69.0297 7.79176 69.1837 7.78338 69.3247 7.78338C69.7735 7.78338 70.1638 7.86873 70.4953 8.04021C70.8253 8.21169 71.009 8.5394 71.0432 9.02335H73.4356C73.3883 8.45633 73.2435 7.98686 73.0019 7.61418C72.7603 7.24227 72.4555 6.94427 72.0896 6.71945C71.7238 6.49462 71.3077 6.33534 70.8398 6.24083C70.3733 6.14633 69.8924 6.09908 69.3971 6.09908C68.9017 6.09908 68.4154 6.14328 67.9444 6.23092C67.4712 6.32009 67.0459 6.47404 66.6686 6.69277C66.2899 6.9115 65.9865 7.20949 65.7556 7.58751C65.5247 7.96552 65.4096 8.45024 65.4096 9.04088C65.4096 9.44252 65.4927 9.78319 65.6588 10.0606C65.8227 10.3388 66.0422 10.5682 66.3127 10.7519C66.5856 10.9348 66.8958 11.0834 67.244 11.1947C67.5923 11.3082 67.9498 11.405 68.3156 11.4881C69.2141 11.6771 69.9145 11.8661 70.416 12.0559C70.9183 12.2449 71.169 12.5284 71.169 12.9064C71.169 13.1312 71.1164 13.3156 71.0097 13.4635C70.903 13.6121 70.7704 13.7295 70.6111 13.8179C70.4511 13.9071 70.2735 13.9726 70.0792 14.013C69.8841 14.0549 69.6973 14.0755 69.5205 14.0755C69.2721 14.0755 69.0335 14.0458 68.8034 13.9871C68.5724 13.9276 68.3689 13.8362 68.1914 13.712C68.0146 13.5877 67.869 13.4284 67.757 13.2333C67.6457 13.0382 67.5885 12.8058 67.5885 12.5329H65.197C65.2214 13.1472 65.3593 13.6586 65.6139 14.0663C65.8669 14.4741 66.1916 14.8018 66.5879 15.0502C66.9834 15.2979 67.4361 15.4755 67.9444 15.5822C68.4513 15.6881 68.971 15.7415 69.5022 15.7415C70.0334 15.7415 70.5334 15.6912 71.0356 15.5914C71.5379 15.4908 71.9837 15.3162 72.3732 15.0678C72.7641 14.8201 73.0781 14.4924 73.3212 14.0846C73.5628 13.6761 73.684 13.1716 73.684 12.5688C73.684 12.1427 73.6017 11.7861 73.4363 11.4972L73.4348 11.4965ZM78.4313 2.85547L73.6474 15.5106H76.4467L77.4382 12.6922H82.1695L83.1252 15.5106H86.0144L81.2839 2.85547H78.4305H78.4313ZM78.1661 10.6192L79.8138 5.97561H79.8488L81.444 10.6192H78.1661ZM94.7149 7.58827C94.3727 7.13938 93.9413 6.77889 93.4215 6.50758C92.9018 6.2355 92.2822 6.09984 91.562 6.09984C90.9942 6.09984 90.4752 6.21187 90.0027 6.43594C89.5286 6.66076 89.1399 7.02125 88.8336 7.51739H88.7977V6.34677H86.4047V18.7191H88.9227V14.3765H88.957C89.2642 14.8262 89.6574 15.1653 90.1368 15.3947C90.6139 15.6249 91.1375 15.7407 91.7045 15.7407C92.3782 15.7407 92.9658 15.6096 93.4673 15.3505C93.9695 15.0906 94.3887 14.7416 94.7255 14.3041C95.0624 13.8667 95.3124 13.3652 95.4793 12.7982C95.6431 12.2304 95.727 11.6397 95.727 11.0255C95.727 10.3754 95.6431 9.75271 95.4793 9.1552C95.3124 8.55922 95.0594 8.03564 94.7164 7.58675L94.7149 7.58827ZM93.103 12.0368C93.0313 12.392 92.9102 12.7014 92.7395 12.9674C92.568 13.2333 92.3439 13.4498 92.065 13.6144C91.7883 13.7798 91.4423 13.8636 91.0292 13.8636C90.6162 13.8636 90.2862 13.7805 90.0027 13.6144C89.7191 13.4498 89.4913 13.2333 89.3198 12.9674C89.1483 12.7014 89.0248 12.392 88.9479 12.0368C88.8709 11.6824 88.8336 11.3219 88.8336 10.9569C88.8336 10.5918 88.8679 10.2115 88.9387 9.85788C89.0104 9.50349 89.1308 9.19026 89.303 8.91742C89.473 8.6461 89.6986 8.42509 89.9767 8.25361C90.2542 8.08213 90.5986 7.99525 91.0125 7.99525C91.4263 7.99525 91.7548 8.08213 92.0314 8.25361C92.3089 8.42432 92.5367 8.64839 92.7135 8.92656C92.8904 9.20474 93.0169 9.52102 93.0946 9.87465C93.1723 10.229 93.2089 10.5903 93.2089 10.9569C93.2089 11.3235 93.1746 11.6832 93.1037 12.0368H93.103ZM105.505 9.15672C105.34 8.56074 105.086 8.03716 104.743 7.58827C104.4 7.13938 103.97 6.77889 103.45 6.50758C102.93 6.2355 102.309 6.09984 101.589 6.09984C101.023 6.09984 100.502 6.21187 100.031 6.43594C99.5582 6.66076 99.168 7.02125 98.8608 7.51739H98.8265V6.34677H96.4342V18.7191H98.95V14.3765H98.9858C99.293 14.8262 99.6862 15.1653 100.164 15.3947C100.642 15.6249 101.166 15.7407 101.733 15.7407C102.405 15.7407 102.992 15.6096 103.495 15.3505C103.997 15.0906 104.417 14.7416 104.753 14.3041C105.09 13.8667 105.34 13.3652 105.506 12.7982C105.672 12.2304 105.754 11.6397 105.754 11.0255C105.754 10.3754 105.672 9.75271 105.506 9.1552L105.505 9.15672ZM103.13 12.0368C103.06 12.392 102.939 12.7014 102.768 12.9674C102.595 13.2333 102.371 13.4498 102.094 13.6144C101.816 13.7798 101.471 13.8636 101.057 13.8636C100.643 13.8636 100.313 13.7805 100.029 13.6144C99.7449 13.4498 99.5186 13.2333 99.3463 12.9674C99.1756 12.7014 99.0514 12.392 98.9744 12.0368C98.8974 11.6824 98.8593 11.3219 98.8593 10.9569C98.8593 10.5918 98.8951 10.2115 98.966 9.85788C99.0369 9.50349 99.1581 9.19026 99.3295 8.91742C99.5003 8.6461 99.7251 8.42509 100.003 8.25361C100.28 8.08213 100.626 7.99525 101.04 7.99525C101.454 7.99525 101.781 8.08213 102.058 8.25361C102.336 8.42432 102.563 8.64839 102.741 8.92656C102.918 9.20474 103.046 9.52102 103.122 9.87465C103.2 10.229 103.237 10.5903 103.237 10.9569C103.237 11.3235 103.201 11.6832 103.13 12.0368Z" fill="#19C056"/>
</g>
</g>
<line opacity="0.5" x1="156.923" y1="3.07617" x2="156.923" y2="16.9223" stroke="#4867FA" stroke-width="1.53846"/>
<path d="M177.973 10.9922C173.176 11.7812 172.323 12.7834 171.683 18.626C171.662 18.8179 171.384 18.8179 171.363 18.626C170.723 12.7834 169.87 11.8025 165.073 10.9922C164.881 10.9709 164.881 10.6937 165.073 10.6724C169.87 9.88342 170.723 8.90255 171.363 3.05995C171.384 2.86804 171.662 2.86804 171.683 3.05995C172.323 8.90255 173.176 9.8621 177.973 10.6724C178.144 10.6937 178.144 10.9496 177.973 10.9922Z" fill="black"/>
<path d="M177.973 10.9922C173.176 11.7812 172.323 12.7834 171.683 18.626C171.662 18.8179 171.384 18.8179 171.363 18.626C170.723 12.7834 169.87 11.8025 165.073 10.9922C164.881 10.9709 164.881 10.6937 165.073 10.6724C169.87 9.88342 170.723 8.90255 171.363 3.05995C171.384 2.86804 171.662 2.86804 171.683 3.05995C172.323 8.90255 173.176 9.8621 177.973 10.6724C178.144 10.6937 178.144 10.9496 177.973 10.9922Z" fill="url(#paint0_linear_5050_1443)"/>
<path d="M180.02 4.25305C178.528 4.55158 178.101 5.04202 177.845 6.79053C177.824 6.98244 177.547 6.98244 177.526 6.79053C177.27 5.04202 176.843 4.55158 175.351 4.23173C175.18 4.18908 175.18 3.95453 175.351 3.91188C176.822 3.61335 177.27 3.12292 177.526 1.3744C177.547 1.18249 177.824 1.18249 177.845 1.3744C178.101 3.12292 178.528 3.61335 180.02 3.9332C180.191 3.97585 180.191 4.23173 180.02 4.25305Z" fill="black"/>
<path d="M180.02 4.25305C178.528 4.55158 178.101 5.04202 177.845 6.79053C177.824 6.98244 177.547 6.98244 177.526 6.79053C177.27 5.04202 176.843 4.55158 175.351 4.23173C175.18 4.18908 175.18 3.95453 175.351 3.91188C176.822 3.61335 177.27 3.12292 177.526 1.3744C177.547 1.18249 177.824 1.18249 177.845 1.3744C178.101 3.12292 178.528 3.61335 180.02 3.9332C180.191 3.97585 180.191 4.23173 180.02 4.25305Z" fill="url(#paint1_linear_5050_1443)"/>
<path d="M185.297 14H184.16L187.447 5.04895H188.566L191.853 14H190.716L188.042 6.46503H187.972L185.297 14ZM185.716 10.5035H190.297V11.465H185.716V10.5035ZM194.331 5.04895V14H193.247V5.04895H194.331ZM200.333 14H199.196L202.483 5.04895H203.602L206.889 14H205.752L203.078 6.46503H203.008L200.333 14ZM200.752 10.5035H205.333V11.465H200.752V10.5035ZM210.853 16.6573C210.355 16.6573 209.926 16.5932 209.568 16.465C209.21 16.3397 208.911 16.1737 208.672 15.9668C208.436 15.7628 208.248 15.5443 208.108 15.3112L208.93 14.7343C209.023 14.8566 209.141 14.9965 209.284 15.1538C209.427 15.3141 209.622 15.4525 209.87 15.5691C210.12 15.6885 210.448 15.7483 210.853 15.7483C211.395 15.7483 211.842 15.6171 212.195 15.3549C212.547 15.0927 212.724 14.6818 212.724 14.1224V12.7587H212.636C212.56 12.8811 212.453 13.0326 212.313 13.2133C212.176 13.391 211.978 13.5498 211.718 13.6897C211.462 13.8266 211.115 13.8951 210.678 13.8951C210.136 13.8951 209.65 13.7669 209.218 13.5105C208.79 13.2541 208.451 12.8811 208.2 12.3916C207.952 11.9021 207.828 11.3077 207.828 10.6084C207.828 9.92075 207.949 9.32197 208.191 8.81206C208.433 8.29924 208.77 7.90297 209.201 7.62325C209.632 7.34062 210.13 7.1993 210.696 7.1993C211.133 7.1993 211.479 7.27214 211.736 7.41783C211.995 7.56061 212.193 7.72378 212.33 7.90734C212.47 8.088 212.578 8.2366 212.654 8.35315H212.759V7.28671H213.755V14.1923C213.755 14.7692 213.624 15.2383 213.362 15.5997C213.102 15.9639 212.753 16.2305 212.313 16.3995C211.876 16.5714 211.389 16.6573 210.853 16.6573ZM210.818 12.9685C211.232 12.9685 211.581 12.8738 211.867 12.6844C212.152 12.495 212.37 12.2226 212.518 11.8671C212.667 11.5117 212.741 11.0862 212.741 10.5909C212.741 10.1072 212.668 9.68036 212.522 9.31031C212.377 8.94027 212.161 8.65035 211.876 8.44056C211.59 8.23077 211.238 8.12587 210.818 8.12587C210.381 8.12587 210.017 8.2366 209.725 8.45804C209.437 8.67949 209.22 8.97669 209.074 9.34965C208.931 9.72261 208.86 10.1364 208.86 10.5909C208.86 11.0571 208.933 11.4694 209.078 11.8278C209.227 12.1833 209.446 12.463 209.734 12.667C210.025 12.868 210.387 12.9685 210.818 12.9685ZM218.458 14.1399C217.811 14.1399 217.253 13.9971 216.784 13.7115C216.318 13.4231 215.958 13.021 215.704 12.5052C215.454 11.9866 215.328 11.3834 215.328 10.6958C215.328 10.0082 215.454 9.4021 215.704 8.87762C215.958 8.35023 216.31 7.93939 216.762 7.6451C217.217 7.3479 217.747 7.1993 218.353 7.1993C218.703 7.1993 219.048 7.25758 219.389 7.37413C219.73 7.49068 220.04 7.68007 220.32 7.94231C220.599 8.20163 220.822 8.54545 220.988 8.97378C221.154 9.4021 221.238 9.92949 221.238 10.5559V10.993H216.063V10.1014H220.189C220.189 9.72261 220.113 9.38462 219.961 9.08741C219.813 8.79021 219.6 8.55565 219.323 8.38374C219.049 8.21183 218.726 8.12587 218.353 8.12587C217.942 8.12587 217.587 8.22786 217.286 8.43182C216.989 8.63287 216.761 8.8951 216.6 9.21853C216.44 9.54196 216.36 9.88869 216.36 10.2587V10.8531C216.36 11.3601 216.447 11.7899 216.622 12.1425C216.8 12.4921 217.046 12.7587 217.361 12.9423C217.675 13.123 218.041 13.2133 218.458 13.2133C218.729 13.2133 218.974 13.1754 219.192 13.0997C219.414 13.021 219.604 12.9044 219.765 12.75C219.925 12.5927 220.049 12.3974 220.136 12.1643L221.133 12.4441C221.028 12.7821 220.851 13.0793 220.604 13.3357C220.356 13.5892 220.05 13.7873 219.686 13.9301C219.322 14.0699 218.912 14.1399 218.458 14.1399ZM223.838 9.96154V14H222.807V7.28671H223.803V8.33566H223.891C224.048 7.99476 224.287 7.72086 224.607 7.51399C224.928 7.3042 225.342 7.1993 225.849 7.1993C226.303 7.1993 226.701 7.29254 227.042 7.47902C227.383 7.66259 227.648 7.94231 227.837 8.31818C228.027 8.69114 228.121 9.16317 228.121 9.73427V14H227.09V9.8042C227.09 9.27681 226.953 8.86597 226.679 8.57168C226.405 8.27448 226.029 8.12587 225.551 8.12587C225.222 8.12587 224.928 8.19726 224.668 8.34003C224.412 8.48281 224.21 8.69114 224.061 8.96503C223.912 9.23893 223.838 9.5711 223.838 9.96154ZM232.926 7.28671V8.16084H229.447V7.28671H232.926ZM230.461 5.67832H231.492V12.0769C231.492 12.3683 231.534 12.5868 231.619 12.7325C231.706 12.8753 231.817 12.9714 231.951 13.021C232.088 13.0676 232.232 13.0909 232.384 13.0909C232.497 13.0909 232.591 13.0851 232.663 13.0734C232.736 13.0589 232.795 13.0472 232.838 13.0385L233.048 13.965C232.978 13.9913 232.881 14.0175 232.755 14.0437C232.63 14.0728 232.471 14.0874 232.279 14.0874C231.987 14.0874 231.702 14.0248 231.422 13.8995C231.145 13.7742 230.915 13.5833 230.732 13.3269C230.551 13.0705 230.461 12.7471 230.461 12.3566V5.67832Z" fill="black"/>
<defs>
<filter id="filter0_d_5050_1443" x="22.2942" y="2.85547" width="84.0317" height="17.0073" filterUnits="userSpaceOnUse" color-interpolation-filters="sRGB">
<feFlood flood-opacity="0" result="BackgroundImageFix"/>
<feColorMatrix in="SourceAlpha" type="matrix" values="0 0 0 0 0 0 0 0 0 0 0 0 0 0 0 0 0 0 127 0" result="hardAlpha"/>
<feOffset dy="0.571992"/>
<feGaussianBlur stdDeviation="0.285996"/>
<feComposite in2="hardAlpha" operator="out"/>
<feColorMatrix type="matrix" values="0 0 0 0 1 0 0 0 0 1 0 0 0 0 1 0 0 0 1 0"/>
<feBlend mode="normal" in2="BackgroundImageFix" result="effect1_dropShadow_5050_1443"/>
<feBlend mode="normal" in="SourceGraphic" in2="effect1_dropShadow_5050_1443" result="shape"/>
</filter>
<linearGradient id="paint0_linear_5050_1443" x1="164.979" y1="18.7413" x2="180.498" y2="5.88033" gradientUnits="userSpaceOnUse">
<stop stop-color="#7D2AE7"/>
<stop offset="0.5" stop-color="#4A4FEE"/>
<stop offset="1" stop-color="#00D9E3"/>
</linearGradient>
<linearGradient id="paint1_linear_5050_1443" x1="175.242" y1="6.92416" x2="180.861" y2="2.08389" gradientUnits="userSpaceOnUse">
<stop stop-color="#7D2AE7"/>
<stop offset="0.5" stop-color="#4A4FEE"/>
<stop offset="1" stop-color="#00D9E3"/>
</linearGradient>
<clipPath id="clip0_5050_1443">
<rect width="84" height="19" fill="white" transform="translate(22.7354 0.5)"/>
</clipPath>
</defs>
</svg>
