<svg width="269" height="27" viewBox="0 0 269 27" fill="none" xmlns="http://www.w3.org/2000/svg">
<path d="M110.327 8.54361H112.807L116.129 16.6511H116.26L119.582 8.54361H122.062V19.7324H120.117V12.0456H120.013L116.921 19.6996H115.468L112.376 12.0292H112.272V19.7324H110.327V8.54361ZM126.52 19.9018C125.988 19.9018 125.509 19.8071 125.083 19.6177C124.66 19.4247 124.325 19.1406 124.078 18.7654C123.834 18.3903 123.712 17.9277 123.712 17.3777C123.712 16.9043 123.799 16.5127 123.974 16.2031C124.149 15.8936 124.387 15.6459 124.689 15.4601C124.992 15.2744 125.332 15.1342 125.711 15.0395C126.094 14.9411 126.489 14.8701 126.897 14.8264C127.388 14.7754 127.787 14.7299 128.093 14.6898C128.399 14.6461 128.621 14.5805 128.76 14.4931C128.902 14.4021 128.973 14.2619 128.973 14.0725V14.0397C128.973 13.6281 128.851 13.3094 128.607 13.0836C128.363 12.8578 128.011 12.7449 127.552 12.7449C127.068 12.7449 126.684 12.8505 126.399 13.0617C126.119 13.273 125.93 13.5225 125.831 13.8102L123.985 13.548C124.13 13.0381 124.371 12.6119 124.706 12.2696C125.041 11.9236 125.451 11.665 125.935 11.4938C126.42 11.319 126.955 11.2315 127.541 11.2315C127.946 11.2315 128.348 11.2789 128.749 11.3736C129.149 11.4683 129.515 11.6249 129.847 11.8434C130.178 12.0583 130.444 12.3515 130.644 12.723C130.848 13.0945 130.95 13.5589 130.95 14.1162V19.7324H129.049V18.5797H128.984C128.863 18.8128 128.694 19.0313 128.476 19.2353C128.261 19.4356 127.989 19.5977 127.661 19.7215C127.337 19.8417 126.957 19.9018 126.52 19.9018ZM127.033 18.4485C127.43 18.4485 127.774 18.3702 128.066 18.2136C128.357 18.0534 128.581 17.8421 128.738 17.5799C128.898 17.3176 128.978 17.0317 128.978 16.7222V15.7333C128.916 15.7843 128.811 15.8316 128.661 15.8753C128.516 15.919 128.352 15.9573 128.17 15.9901C127.987 16.0228 127.807 16.052 127.629 16.0775C127.45 16.103 127.295 16.1248 127.164 16.143C126.869 16.1831 126.605 16.2487 126.372 16.3397C126.139 16.4308 125.955 16.5583 125.82 16.7222C125.686 16.8824 125.618 17.09 125.618 17.345C125.618 17.7092 125.751 17.9842 126.017 18.1699C126.283 18.3557 126.622 18.4485 127.033 18.4485ZM132.862 19.7324V11.3408H134.78V12.7394H134.867C135.02 12.255 135.282 11.8817 135.654 11.6194C136.029 11.3536 136.457 11.2206 136.938 11.2206C137.047 11.2206 137.169 11.2261 137.304 11.237C137.442 11.2443 137.557 11.257 137.648 11.2753V13.0945C137.564 13.0654 137.431 13.0399 137.249 13.018C137.071 12.9925 136.898 12.9798 136.73 12.9798C136.37 12.9798 136.045 13.0581 135.758 13.2147C135.474 13.3677 135.25 13.5808 135.086 13.8539C134.922 14.1271 134.84 14.4421 134.84 14.7991V19.7324H132.862ZM140.688 17.0991L140.682 14.7117H140.999L144.015 11.3408H146.326L142.616 15.4711H142.207L140.688 17.0991ZM138.885 19.7324V8.54361H140.863V19.7324H138.885ZM144.152 19.7324L141.42 15.9136L142.753 14.5204L146.517 19.7324H144.152ZM150.937 19.8963C150.095 19.8963 149.369 19.7215 148.757 19.3718C148.148 19.0186 147.68 18.5196 147.353 17.8749C147.025 17.2266 146.861 16.4636 146.861 15.5858C146.861 14.7226 147.025 13.965 147.353 13.3131C147.684 12.6575 148.147 12.1476 148.74 11.7833C149.334 11.4155 150.031 11.2315 150.833 11.2315C151.35 11.2315 151.838 11.3153 152.297 11.4829C152.759 11.6468 153.167 11.9017 153.521 12.2477C153.878 12.5937 154.158 13.0344 154.362 13.5698C154.566 14.1016 154.668 14.7353 154.668 15.4711V16.0775H147.79V14.7444H152.772C152.769 14.3657 152.687 14.0288 152.526 13.7337C152.366 13.4351 152.142 13.2002 151.854 13.029C151.57 12.8578 151.239 12.7722 150.86 12.7722C150.456 12.7722 150.101 12.8705 149.795 13.0672C149.489 13.2602 149.25 13.5152 149.079 13.8321C148.911 14.1453 148.826 14.4895 148.822 14.8646V16.0283C148.822 16.5164 148.911 16.9352 149.09 17.2849C149.268 17.6309 149.518 17.8968 149.838 18.0825C150.159 18.2646 150.534 18.3557 150.964 18.3557C151.252 18.3557 151.512 18.3156 151.745 18.2355C151.978 18.1517 152.18 18.0297 152.352 17.8694C152.523 17.7092 152.652 17.5107 152.739 17.2739L154.586 17.4815C154.469 17.9696 154.247 18.3957 153.919 18.76C153.595 19.1205 153.18 19.401 152.674 19.6013C152.168 19.798 151.588 19.8963 150.937 19.8963ZM160.454 11.3408V12.8705H155.63V11.3408H160.454ZM156.821 9.33032H158.799V17.2084C158.799 17.4743 158.839 17.6782 158.919 17.8203C159.003 17.9587 159.112 18.0534 159.247 18.1044C159.382 18.1554 159.531 18.1808 159.695 18.1808C159.819 18.1808 159.932 18.1717 160.034 18.1535C160.139 18.1353 160.22 18.1189 160.274 18.1044L160.607 19.6505C160.502 19.6869 160.351 19.727 160.154 19.7707C159.961 19.8144 159.724 19.8399 159.444 19.8472C158.948 19.8617 158.502 19.7871 158.105 19.6232C157.708 19.4556 157.393 19.197 157.16 18.8474C156.931 18.4977 156.818 18.0607 156.821 17.5362V9.33032ZM162.032 19.7324V11.3408H164.009V19.7324H162.032ZM163.026 10.1498C162.713 10.1498 162.443 10.046 162.217 9.83841C161.992 9.62716 161.879 9.37403 161.879 9.07901C161.879 8.78035 161.992 8.52722 162.217 8.31961C162.443 8.10837 162.713 8.00274 163.026 8.00274C163.343 8.00274 163.612 8.10837 163.834 8.31961C164.06 8.52722 164.173 8.78035 164.173 9.07901C164.173 9.37403 164.06 9.62716 163.834 9.83841C163.612 10.046 163.343 10.1498 163.026 10.1498ZM167.944 14.8155V19.7324H165.966V11.3408H167.856V12.7667H167.955C168.148 12.2969 168.456 11.9236 168.878 11.6468C169.304 11.37 169.83 11.2315 170.457 11.2315C171.036 11.2315 171.54 11.3554 171.97 11.6031C172.404 11.8507 172.739 12.2095 172.975 12.6793C173.216 13.1492 173.334 13.7192 173.331 14.3893V19.7324H171.353V14.6953C171.353 14.1344 171.207 13.6955 170.916 13.3786C170.628 13.0617 170.229 12.9033 169.719 12.9033C169.373 12.9033 169.066 12.9798 168.796 13.1328C168.53 13.2821 168.321 13.4988 168.168 13.7829C168.018 14.067 167.944 14.4112 167.944 14.8155ZM178.914 23.0541C178.203 23.0541 177.593 22.9576 177.083 22.7645C176.574 22.5752 176.164 22.3202 175.854 21.9997C175.545 21.6792 175.33 21.3241 175.21 20.9343L176.991 20.5027C177.071 20.6666 177.187 20.8287 177.34 20.989C177.493 21.1529 177.699 21.2876 177.958 21.3933C178.22 21.5025 178.549 21.5572 178.946 21.5572C179.507 21.5572 179.972 21.4206 180.34 21.1474C180.707 20.8779 180.891 20.4335 180.891 19.8144V18.2246H180.793C180.691 18.4285 180.542 18.6379 180.345 18.8528C180.152 19.0677 179.895 19.248 179.575 19.3937C179.258 19.5394 178.859 19.6122 178.378 19.6122C177.734 19.6122 177.149 19.4611 176.625 19.1588C176.104 18.8528 175.688 18.3976 175.379 17.793C175.073 17.1847 174.92 16.4235 174.92 15.5093C174.92 14.5878 175.073 13.8102 175.379 13.1765C175.688 12.5391 176.105 12.0565 176.63 11.7287C177.154 11.3973 177.739 11.2315 178.384 11.2315C178.875 11.2315 179.28 11.3153 179.597 11.4829C179.917 11.6468 180.172 11.8453 180.361 12.0784C180.551 12.3078 180.695 12.5245 180.793 12.7285H180.902V11.3408H182.853V19.869C182.853 20.5865 182.681 21.1802 182.339 21.65C181.997 22.1199 181.529 22.4713 180.935 22.7045C180.341 22.9376 179.668 23.0541 178.914 23.0541ZM178.93 18.0607C179.349 18.0607 179.706 17.9587 180.001 17.7547C180.296 17.5507 180.52 17.2576 180.673 16.8751C180.826 16.4927 180.902 16.0338 180.902 15.4984C180.902 14.9703 180.826 14.5077 180.673 14.1107C180.523 13.7137 180.301 13.4059 180.006 13.1874C179.715 12.9652 179.356 12.8541 178.93 12.8541C178.489 12.8541 178.121 12.9689 177.826 13.1983C177.531 13.4278 177.309 13.7428 177.16 14.1435C177.011 14.5405 176.936 14.9921 176.936 15.4984C176.936 16.0119 177.011 16.4617 177.16 16.8478C177.313 17.2302 177.537 17.5289 177.832 17.7438C178.131 17.955 178.497 18.0607 178.93 18.0607Z" fill="black"/>
<path d="M8.89941 4.46191C11.2041 4.46292 13.3682 5.36045 14.9951 6.98926C16.622 8.61765 17.5176 10.7836 17.5166 13.0859C17.5144 17.8369 13.6486 21.7031 8.89941 21.7031H8.89648C7.4696 21.7026 6.0673 21.3474 4.81836 20.6748L0.354492 21.8467L0.162109 21.8965L0.214844 21.7061L1.4082 17.3428C0.670167 16.0466 0.281728 14.58 0.282227 13.0781C0.284427 8.32715 4.14985 4.46202 8.89941 4.46191ZM8.90234 6.12695C5.0675 6.12709 1.948 9.24577 1.94629 13.0791C1.94583 14.3106 2.26912 15.5128 2.88281 16.5703L3.00977 16.7793L3.17773 17.0469L3.2041 17.0898L3.19141 17.1387L2.5293 19.5547L5.0127 18.9033L5.05859 18.8916L5.09961 18.916L5.3584 19.0693C6.42556 19.7023 7.64931 20.0381 8.89648 20.0381H8.89941C12.7315 20.0381 15.8511 16.9186 15.8525 13.085C15.853 11.2271 15.1313 9.48005 13.8184 8.16602C12.5058 6.85146 10.7597 6.12744 8.90234 6.12695ZM6.30176 9.04492C6.33926 9.04677 6.45936 9.03342 6.56836 9.08496C6.68665 9.14095 6.78867 9.26059 6.87988 9.47949L7.25391 10.3887C7.38997 10.7192 7.50664 11.0003 7.53125 11.0498C7.59157 11.1704 7.64347 11.3362 7.5498 11.5244C7.48172 11.6615 7.44 11.7658 7.32227 11.9033C7.27288 11.961 7.21648 12.0308 7.16016 12.0986L6.99707 12.2822C6.94084 12.3379 6.90595 12.376 6.89062 12.417C6.8794 12.4472 6.87378 12.4933 6.92188 12.5762C7.0437 12.7856 7.4629 13.4695 8.08105 14.0205L8.37305 14.2646C9.03654 14.7833 9.5691 14.9606 9.76465 15.0586C9.86313 15.1079 9.92289 15.1181 9.96289 15.1133C9.99812 15.109 10.0361 15.0905 10.0869 15.0322L10.415 14.6445C10.5481 14.4829 10.6827 14.3135 10.751 14.2109C10.834 14.0863 10.931 14.0149 11.0518 14.001C11.16 13.9886 11.2693 14.0263 11.3633 14.0605C11.4676 14.0986 11.7849 14.2483 12.0938 14.3975C12.2677 14.4814 12.442 14.5674 12.5811 14.6357L12.5801 14.6318L12.8271 14.7559C12.9265 14.8056 13.0233 14.85 13.0938 14.8887C13.1644 14.9275 13.2369 14.9749 13.2803 15.0469H13.2812C13.3093 15.0938 13.3194 15.1611 13.3242 15.2227C13.3295 15.2904 13.3294 15.3743 13.3213 15.4688C13.305 15.6578 13.2587 15.898 13.167 16.1553C13.0652 16.4405 12.7807 16.6947 12.4902 16.8809C12.1969 17.0689 11.867 17.2065 11.6416 17.2402C11.2663 17.2963 10.7836 17.3211 10.252 17.1523C9.94162 17.0539 9.54214 16.921 9.03027 16.7002C6.8652 15.7655 5.45459 13.5894 5.35449 13.4561C5.30033 13.3836 5.0791 13.0894 4.87109 12.6797C4.66378 12.2713 4.46484 11.7381 4.46484 11.1895C4.46495 10.0962 5.0429 9.55317 5.23828 9.33984C5.45823 9.09984 5.7208 9.0372 5.88867 9.03711C6.03024 9.03711 6.17479 9.0383 6.30176 9.04492Z" fill="#19C056" stroke="#19C056" stroke-width="0.228797"/>
<g clip-path="url(#clip0_6044_1777)">
<g filter="url(#filter0_d_6044_1777)">
<path d="M34.0675 15.5679H34.0325L31.8711 6.84766H29.2661L27.0689 15.4612H27.0339L25.0318 6.84766H22.25L25.5988 19.5028H28.4164L30.5244 10.8884H30.5602L32.7041 19.5028H35.4683L38.8704 6.84766H36.142L34.0683 15.5679H34.0675ZM47.3567 11.1278C47.109 10.8031 46.7691 10.5493 46.3385 10.3656C45.9072 10.1835 45.3546 10.092 44.6817 10.092C44.2091 10.092 43.7252 10.2124 43.2283 10.4556C42.7321 10.6972 42.3252 11.0843 42.0058 11.6163H41.9525V6.84766H39.4367V19.502H41.9525V14.6991C41.9525 13.7655 42.1057 13.0956 42.4136 12.6871C42.7207 12.2801 43.2168 12.0758 43.902 12.0758C44.5041 12.0758 44.9233 12.2618 45.1603 12.6345C45.3965 13.0064 45.5147 13.5704 45.5147 14.3264V19.502H48.0312V13.8661C48.0312 13.2991 47.9801 12.7823 47.8803 12.3151C47.7797 11.8495 47.6059 11.4532 47.3575 11.1278H47.3567ZM57.7224 17.4641V12.697C57.7224 12.1406 57.5989 11.6948 57.3497 11.3587C57.102 11.0218 56.7835 10.7589 56.394 10.5699C56.0038 10.3809 55.5724 10.2536 55.0999 10.1888C54.6274 10.124 54.161 10.0913 53.7007 10.0913C53.1931 10.0913 52.6878 10.1408 52.1863 10.2422C51.6833 10.3428 51.2321 10.5112 50.8305 10.7475C50.4288 10.9837 50.0973 11.2969 49.839 11.6864C49.5783 12.0766 49.4305 12.5666 49.3954 13.1581H51.9112C51.9584 12.6619 52.1246 12.3068 52.4081 12.0941C52.6916 11.8815 53.081 11.7756 53.5772 11.7756C53.8013 11.7756 54.0108 11.79 54.2059 11.8198C54.4003 11.8495 54.5718 11.9074 54.7196 11.9966C54.8675 12.085 54.9856 12.2092 55.074 12.3693C55.1624 12.5285 55.2066 12.745 55.2066 13.0155C55.218 13.2762 55.1411 13.4728 54.9765 13.6092C54.8103 13.7457 54.5862 13.8493 54.3027 13.9194C54.0192 13.9911 53.6946 14.0444 53.328 14.0787C52.9614 14.1153 52.5895 14.1633 52.2122 14.2212C51.8334 14.2807 51.4585 14.3599 51.0873 14.4605C50.7154 14.5604 50.3831 14.712 50.0943 14.9117C49.8047 15.1137 49.5684 15.3819 49.3847 15.7188C49.2018 16.0557 49.1104 16.4847 49.1104 17.0037C49.1104 17.4763 49.1904 17.884 49.3497 18.2262C49.509 18.5699 49.7307 18.8527 50.0143 19.0775C50.2978 19.3023 50.6285 19.4677 51.0065 19.5744C51.3838 19.6803 51.7923 19.7337 52.229 19.7337C52.796 19.7337 53.3516 19.6506 53.8942 19.486C54.4376 19.3191 54.9109 19.031 55.3126 18.6164C55.324 18.7704 55.3446 18.9213 55.3743 19.0683C55.404 19.2154 55.4421 19.361 55.4894 19.502H58.041C57.9228 19.3137 57.8398 19.0302 57.7925 18.6515C57.7445 18.2734 57.7209 17.8787 57.7209 17.4641H57.7224ZM55.2066 15.9573C55.2066 16.1006 55.1921 16.2896 55.1624 16.5251C55.1335 16.7622 55.0534 16.9946 54.9231 17.2255C54.7928 17.4557 54.5916 17.6546 54.3203 17.8192C54.0489 17.9854 53.6648 18.0677 53.1679 18.0677C52.9675 18.0677 52.7724 18.0501 52.5834 18.0136C52.3944 17.9785 52.229 17.916 52.0872 17.8276C51.9455 17.7392 51.8334 17.618 51.7504 17.4641C51.6681 17.3101 51.6262 17.1219 51.6262 16.8978C51.6262 16.6616 51.6681 16.4657 51.7504 16.3125C51.8334 16.1593 51.9424 16.032 52.0788 15.9314C52.2137 15.8308 52.3738 15.7516 52.5567 15.6921C52.7396 15.6334 52.9256 15.5862 53.1153 15.5504C53.3158 15.5153 53.517 15.4848 53.7174 15.462C53.9194 15.4391 54.1107 15.4086 54.2936 15.3736C54.4773 15.3377 54.648 15.2935 54.808 15.2402C54.9673 15.1868 55.0999 15.1144 55.2066 15.0192V15.9581V15.9573ZM62.4186 7.59225H59.9021V10.339H58.3786V12.0225H59.9021V17.429C59.9021 17.8901 59.9798 18.262 60.133 18.5455C60.287 18.829 60.4965 19.0485 60.7618 19.2017C61.0277 19.3557 61.3349 19.4586 61.6839 19.5111C62.0315 19.5637 62.4019 19.5912 62.7913 19.5912C63.0405 19.5912 63.2935 19.5851 63.5542 19.5744C63.8133 19.5622 64.0496 19.5393 64.263 19.5028V17.5532C64.1441 17.5769 64.0206 17.5959 63.8903 17.6066C63.7607 17.6188 63.6251 17.6249 63.4833 17.6249C63.0588 17.6249 62.7745 17.5532 62.6328 17.4115C62.4918 17.2697 62.4209 16.9862 62.4209 16.5602V12.0225H64.2637V10.339H62.4209V7.59225H62.4186ZM72.8186 15.4886C72.6532 15.199 72.4345 14.9567 72.1632 14.7616C71.8918 14.5672 71.5809 14.4102 71.2334 14.2913C70.8843 14.174 70.5269 14.0741 70.1611 13.9911C69.8067 13.908 69.4591 13.831 69.1162 13.7601C68.7732 13.6893 68.4691 13.6092 68.2032 13.5216C67.9379 13.4324 67.723 13.3181 67.5576 13.1756C67.3915 13.0338 67.3099 12.8517 67.3099 12.6261C67.3099 12.4371 67.3557 12.2862 67.4509 12.1742C67.5454 12.0621 67.6613 11.9768 67.7969 11.9166C67.9334 11.8579 68.0827 11.8198 68.2481 11.8015C68.4135 11.7839 68.5674 11.7756 68.7084 11.7756C69.1573 11.7756 69.5475 11.8609 69.8791 12.0324C70.2091 12.2039 70.3927 12.5316 70.427 13.0155H72.8193C72.7721 12.4485 72.6273 11.979 72.3857 11.6064C72.1441 11.2345 71.8392 10.9365 71.4734 10.7116C71.1076 10.4868 70.6915 10.3275 70.2236 10.233C69.7571 10.1385 69.2762 10.0913 68.7808 10.0913C68.2855 10.0913 67.7992 10.1355 67.3282 10.2231C66.855 10.3123 66.4297 10.4662 66.0524 10.685C65.6737 10.9037 65.3703 11.2017 65.1394 11.5797C64.9085 11.9577 64.7934 12.4424 64.7934 13.0331C64.7934 13.4347 64.8765 13.7754 65.0426 14.0528C65.2065 14.331 65.426 14.5604 65.6965 14.744C65.9694 14.927 66.2795 15.0756 66.6278 15.1868C66.9761 15.3004 67.3336 15.3972 67.6994 15.4803C68.5979 15.6693 69.2983 15.8583 69.7998 16.048C70.302 16.237 70.5528 16.5206 70.5528 16.8986C70.5528 17.1234 70.5002 17.3078 70.3935 17.4557C70.2868 17.6043 70.1542 17.7217 69.9949 17.8101C69.8349 17.8992 69.6573 17.9648 69.4629 18.0052C69.2678 18.0471 69.0811 18.0677 68.9043 18.0677C68.6559 18.0677 68.4173 18.038 68.1871 17.9793C67.9562 17.9198 67.7527 17.8284 67.5752 17.7041C67.3983 17.5799 67.2528 17.4206 67.1407 17.2255C67.0295 17.0304 66.9723 16.798 66.9723 16.5251H64.5808C64.6052 17.1394 64.7431 17.6508 64.9976 18.0585C65.2507 18.4663 65.5753 18.794 65.9716 19.0424C66.3672 19.2901 66.8199 19.4677 67.3282 19.5744C67.835 19.6803 68.3548 19.7337 68.886 19.7337C69.4172 19.7337 69.9172 19.6834 70.4194 19.5835C70.9217 19.4829 71.3675 19.3084 71.757 19.06C72.1479 18.8123 72.4619 18.4846 72.705 18.0768C72.9466 17.6683 73.0678 17.1638 73.0678 16.561C73.0678 16.1349 72.9855 15.7782 72.8201 15.4894L72.8186 15.4886ZM77.8151 6.84766L73.0312 19.5028H75.8305L76.822 16.6844H81.5533L82.509 19.5028H85.3982L80.6677 6.84766H77.8143H77.8151ZM77.5499 14.6114L79.1976 9.9678H79.2326L80.8278 14.6114H77.5499ZM94.0987 11.5805C93.7565 11.1316 93.3251 10.7711 92.8053 10.4998C92.2856 10.2277 91.666 10.092 90.9457 10.092C90.378 10.092 89.859 10.2041 89.3864 10.4281C88.9124 10.653 88.5237 11.0134 88.2173 11.5096H88.1815V10.339H85.7884V22.7113H88.3065V18.3687H88.3408C88.6479 18.8184 89.0412 19.1575 89.5206 19.3869C89.9977 19.6171 90.5212 19.7329 91.0883 19.7329C91.762 19.7329 92.3496 19.6018 92.8511 19.3427C93.3533 19.0828 93.7725 18.7338 94.1093 18.2963C94.4462 17.8589 94.6962 17.3574 94.8631 16.7904C95.0269 16.2226 95.1108 15.6319 95.1108 15.0176C95.1108 14.3676 95.0269 13.7449 94.8631 13.1474C94.6962 12.5514 94.4431 12.0278 94.1002 11.5789L94.0987 11.5805ZM92.4868 16.029C92.4151 16.3841 92.294 16.6936 92.1232 16.9595C91.9518 17.2255 91.7277 17.442 91.4488 17.6066C91.1721 17.772 90.8261 17.8558 90.413 17.8558C89.9999 17.8558 89.67 17.7727 89.3864 17.6066C89.1029 17.442 88.8751 17.2255 88.7036 16.9595C88.5321 16.6936 88.4086 16.3841 88.3317 16.029C88.2547 15.6746 88.2173 15.3141 88.2173 14.9491C88.2173 14.584 88.2516 14.2037 88.3225 13.8501C88.3942 13.4957 88.5146 13.1824 88.6868 12.9096C88.8568 12.6383 89.0824 12.4173 89.3605 12.2458C89.6379 12.0743 89.9824 11.9874 90.3963 11.9874C90.8101 11.9874 91.1386 12.0743 91.4152 12.2458C91.6926 12.4165 91.9205 12.6406 92.0973 12.9188C92.2741 13.1969 92.4007 13.5132 92.4784 13.8668C92.5561 14.2212 92.5927 14.5825 92.5927 14.9491C92.5927 15.3156 92.5584 15.6754 92.4875 16.029H92.4868ZM104.889 13.1489C104.723 12.5529 104.47 12.0294 104.127 11.5805C103.784 11.1316 103.354 10.7711 102.834 10.4998C102.314 10.2277 101.693 10.092 100.973 10.092C100.407 10.092 99.8863 10.2041 99.4145 10.4281C98.942 10.653 98.5518 11.0134 98.2446 11.5096H98.2103V10.339H95.818V22.7113H98.3338V18.3687H98.3696C98.6768 18.8184 99.07 19.1575 99.5479 19.3869C100.026 19.6171 100.549 19.7329 101.116 19.7329C101.789 19.7329 102.376 19.6018 102.879 19.3427C103.381 19.0828 103.801 18.7338 104.137 18.2963C104.474 17.8589 104.724 17.3574 104.89 16.7904C105.056 16.2226 105.138 15.6319 105.138 15.0176C105.138 14.3676 105.056 13.7449 104.89 13.1474L104.889 13.1489ZM102.514 16.029C102.444 16.3841 102.323 16.6936 102.151 16.9595C101.979 17.2255 101.755 17.442 101.478 17.6066C101.2 17.772 100.855 17.8558 100.441 17.8558C100.027 17.8558 99.6965 17.7727 99.413 17.6066C99.1287 17.442 98.9023 17.2255 98.7301 16.9595C98.5594 16.6936 98.4352 16.3841 98.3582 16.029C98.2812 15.6746 98.2431 15.3141 98.2431 14.9491C98.2431 14.584 98.2789 14.2037 98.3498 13.8501C98.4207 13.4957 98.5419 13.1824 98.7133 12.9096C98.8841 12.6383 99.1089 12.4173 99.3871 12.2458C99.6637 12.0743 100.01 11.9874 100.424 11.9874C100.837 11.9874 101.164 12.0743 101.442 12.2458C101.72 12.4165 101.947 12.6406 102.125 12.9188C102.302 13.1969 102.429 13.5132 102.506 13.8668C102.583 14.2212 102.621 14.5825 102.621 14.9491C102.621 15.3156 102.585 15.6754 102.514 16.029Z" fill="#19C056"/>
</g>
</g>
<line opacity="0.5" x1="191.249" y1="6.80859" x2="191.249" y2="20.6547" stroke="#4867FA" stroke-width="1.53846"/>
<path d="M211.298 14.7247C206.501 15.5136 205.648 16.5158 205.008 22.3584C204.987 22.5503 204.71 22.5503 204.688 22.3584C204.049 16.5158 203.196 15.5349 198.398 14.7247C198.206 14.7033 198.206 14.4261 198.398 14.4048C203.196 13.6158 204.049 12.635 204.688 6.79237C204.71 6.60046 204.987 6.60046 205.008 6.79237C205.648 12.635 206.501 13.5945 211.298 14.4048C211.469 14.4261 211.469 14.682 211.298 14.7247Z" fill="black"/>
<path d="M211.298 14.7247C206.501 15.5136 205.648 16.5158 205.008 22.3584C204.987 22.5503 204.71 22.5503 204.688 22.3584C204.049 16.5158 203.196 15.5349 198.398 14.7247C198.206 14.7033 198.206 14.4261 198.398 14.4048C203.196 13.6158 204.049 12.635 204.688 6.79237C204.71 6.60046 204.987 6.60046 205.008 6.79237C205.648 12.635 206.501 13.5945 211.298 14.4048C211.469 14.4261 211.469 14.682 211.298 14.7247Z" fill="url(#paint0_linear_6044_1777)"/>
<path d="M213.346 7.98548C211.853 8.284 211.427 8.77444 211.171 10.523C211.149 10.7149 210.872 10.7149 210.851 10.523C210.595 8.77444 210.168 8.284 208.676 7.96415C208.505 7.92151 208.505 7.68695 208.676 7.6443C210.147 7.34578 210.595 6.85534 210.851 5.10682C210.872 4.91491 211.149 4.91491 211.171 5.10682C211.427 6.85534 211.853 7.34578 213.346 7.66563C213.516 7.70827 213.516 7.96415 213.346 7.98548Z" fill="black"/>
<path d="M213.346 7.98548C211.853 8.284 211.427 8.77444 211.171 10.523C211.149 10.7149 210.872 10.7149 210.851 10.523C210.595 8.77444 210.168 8.284 208.676 7.96415C208.505 7.92151 208.505 7.68695 208.676 7.6443C210.147 7.34578 210.595 6.85534 210.851 5.10682C210.872 4.91491 211.149 4.91491 211.171 5.10682C211.427 6.85534 211.853 7.34578 213.346 7.66563C213.516 7.70827 213.516 7.96415 213.346 7.98548Z" fill="url(#paint1_linear_6044_1777)"/>
<path d="M219.622 17.7324H218.486L221.772 8.78137H222.891L226.178 17.7324H225.042L222.367 10.1975H222.297L219.622 17.7324ZM220.042 14.2359H224.622V15.1975H220.042V14.2359ZM228.656 8.78137V17.7324H227.572V8.78137H228.656ZM234.658 17.7324H233.522L236.808 8.78137H237.927L241.214 17.7324H240.078L237.403 10.1975H237.333L234.658 17.7324ZM235.078 14.2359H239.658V15.1975H235.078V14.2359ZM245.178 20.3898C244.68 20.3898 244.252 20.3257 243.893 20.1975C243.535 20.0722 243.236 19.9061 242.997 19.6992C242.761 19.4952 242.573 19.2767 242.433 19.0436L243.255 18.4667C243.348 18.5891 243.466 18.7289 243.609 18.8863C243.752 19.0465 243.947 19.1849 244.195 19.3015C244.445 19.4209 244.773 19.4807 245.178 19.4807C245.72 19.4807 246.167 19.3496 246.52 19.0873C246.872 18.8251 247.049 18.4142 247.049 17.8548V16.4912H246.961C246.886 16.6135 246.778 16.7651 246.638 16.9457C246.501 17.1234 246.303 17.2822 246.043 17.4221C245.787 17.5591 245.44 17.6275 245.003 17.6275C244.461 17.6275 243.975 17.4993 243.543 17.2429C243.115 16.9865 242.776 16.6135 242.525 16.124C242.277 15.6345 242.154 15.0401 242.154 14.3408C242.154 13.6532 242.275 13.0544 242.516 12.5445C242.758 12.0317 243.095 11.6354 243.526 11.3557C243.957 11.073 244.455 10.9317 245.021 10.9317C245.458 10.9317 245.805 11.0046 246.061 11.1503C246.32 11.293 246.518 11.4562 246.655 11.6398C246.795 11.8204 246.903 11.969 246.979 12.0856H247.084V11.0191H248.08V17.9247C248.08 18.5017 247.949 18.9708 247.687 19.3321C247.428 19.6963 247.078 19.9629 246.638 20.1319C246.201 20.3038 245.714 20.3898 245.178 20.3898ZM245.143 16.701C245.557 16.701 245.907 16.6063 246.192 16.4169C246.478 16.2275 246.695 15.955 246.843 15.5996C246.992 15.2441 247.066 14.8187 247.066 14.3233C247.066 13.8396 246.993 13.4128 246.848 13.0427C246.702 12.6727 246.486 12.3828 246.201 12.173C245.915 11.9632 245.563 11.8583 245.143 11.8583C244.706 11.8583 244.342 11.969 244.05 12.1905C243.762 12.4119 243.545 12.7091 243.399 13.0821C243.256 13.455 243.185 13.8688 243.185 14.3233C243.185 14.7895 243.258 15.2018 243.404 15.5602C243.552 15.9157 243.771 16.1954 244.059 16.3994C244.351 16.6004 244.712 16.701 245.143 16.701ZM252.783 17.8723C252.136 17.8723 251.578 17.7295 251.109 17.444C250.643 17.1555 250.283 16.7534 250.03 16.2377C249.779 15.719 249.654 15.1159 249.654 14.4282C249.654 13.7406 249.779 13.1345 250.03 12.61C250.283 12.0827 250.636 11.6718 251.087 11.3775C251.542 11.0803 252.072 10.9317 252.678 10.9317C253.028 10.9317 253.373 10.99 253.714 11.1065C254.055 11.2231 254.365 11.4125 254.645 11.6747C254.925 11.9341 255.148 12.2779 255.314 12.7062C255.48 13.1345 255.563 13.6619 255.563 14.2884V14.7254H250.388V13.8338H254.514C254.514 13.455 254.438 13.117 254.287 12.8198C254.138 12.5226 253.925 12.2881 253.648 12.1162C253.374 11.9443 253.051 11.8583 252.678 11.8583C252.267 11.8583 251.912 11.9603 251.612 12.1642C251.314 12.3653 251.086 12.6275 250.925 12.951C250.765 13.2744 250.685 13.6211 250.685 13.9912V14.5856C250.685 15.0926 250.773 15.5223 250.947 15.8749C251.125 16.2246 251.371 16.4912 251.686 16.6747C252.001 16.8554 252.366 16.9457 252.783 16.9457C253.054 16.9457 253.299 16.9078 253.517 16.8321C253.739 16.7534 253.93 16.6369 254.09 16.4824C254.25 16.3251 254.374 16.1299 254.461 15.8968L255.458 16.1765C255.353 16.5145 255.177 16.8117 254.929 17.0681C254.681 17.3216 254.375 17.5197 254.011 17.6625C253.647 17.8024 253.238 17.8723 252.783 17.8723ZM258.163 13.694V17.7324H257.132V11.0191H258.128V12.0681H258.216C258.373 11.7272 258.612 11.4533 258.932 11.2464C259.253 11.0366 259.667 10.9317 260.174 10.9317C260.628 10.9317 261.026 11.025 261.367 11.2114C261.708 11.395 261.973 11.6747 262.162 12.0506C262.352 12.4236 262.446 12.8956 262.446 13.4667V17.7324H261.415V13.5366C261.415 13.0092 261.278 12.5984 261.004 12.3041C260.73 12.0069 260.354 11.8583 259.877 11.8583C259.547 11.8583 259.253 11.9297 258.994 12.0725C258.737 12.2152 258.535 12.4236 258.386 12.6975C258.238 12.9713 258.163 13.3035 258.163 13.694ZM267.251 11.0191V11.8933H263.772V11.0191H267.251ZM264.786 9.41074H265.817V15.8093C265.817 16.1007 265.86 16.3193 265.944 16.4649C266.031 16.6077 266.142 16.7039 266.276 16.7534C266.413 16.8 266.557 16.8233 266.709 16.8233C266.823 16.8233 266.916 16.8175 266.989 16.8058C267.061 16.7913 267.12 16.7796 267.163 16.7709L267.373 17.6975C267.303 17.7237 267.206 17.7499 267.08 17.7761C266.955 17.8053 266.796 17.8198 266.604 17.8198C266.313 17.8198 266.027 17.7572 265.747 17.6319C265.471 17.5066 265.24 17.3158 265.057 17.0593C264.876 16.8029 264.786 16.4795 264.786 16.0891V9.41074Z" fill="black"/>
<defs>
<filter id="filter0_d_6044_1777" x="21.678" y="6.84766" width="84.0317" height="17.0073" filterUnits="userSpaceOnUse" color-interpolation-filters="sRGB">
<feFlood flood-opacity="0" result="BackgroundImageFix"/>
<feColorMatrix in="SourceAlpha" type="matrix" values="0 0 0 0 0 0 0 0 0 0 0 0 0 0 0 0 0 0 127 0" result="hardAlpha"/>
<feOffset dy="0.571992"/>
<feGaussianBlur stdDeviation="0.285996"/>
<feComposite in2="hardAlpha" operator="out"/>
<feColorMatrix type="matrix" values="0 0 0 0 1 0 0 0 0 1 0 0 0 0 1 0 0 0 1 0"/>
<feBlend mode="normal" in2="BackgroundImageFix" result="effect1_dropShadow_6044_1777"/>
<feBlend mode="normal" in="SourceGraphic" in2="effect1_dropShadow_6044_1777" result="shape"/>
</filter>
<linearGradient id="paint0_linear_6044_1777" x1="198.304" y1="22.4737" x2="213.823" y2="9.61276" gradientUnits="userSpaceOnUse">
<stop stop-color="#7D2AE7"/>
<stop offset="0.5" stop-color="#4A4FEE"/>
<stop offset="1" stop-color="#00D9E3"/>
</linearGradient>
<linearGradient id="paint1_linear_6044_1777" x1="208.567" y1="10.6566" x2="214.186" y2="5.81631" gradientUnits="userSpaceOnUse">
<stop stop-color="#7D2AE7"/>
<stop offset="0.5" stop-color="#4A4FEE"/>
<stop offset="1" stop-color="#00D9E3"/>
</linearGradient>
<clipPath id="clip0_6044_1777">
<rect width="83.3202" height="26.3116" fill="white" transform="translate(22.0605)"/>
</clipPath>
</defs>
</svg>
